<svg width="100" height="56" viewBox="0 0 100 56" fill="none" xmlns="http://www.w3.org/2000/svg">
<path d="M57.3919 50.5358C49.537 50.5358 42.1441 48.4604 35.4444 44.3096C37.9856 47.538 40.989 50.0746 44.4544 52.3806C52.5403 56.762 62.0124 56.762 70.0984 52.6112C74.4879 50.0746 78.1843 46.6156 81.1877 42.4648C74.4879 47.7686 65.9399 50.5358 57.3919 50.5358Z" fill="#011E41"/>
<path d="M8.87625 20.5575C8.87625 20.5575 10.0314 24.7083 16.7312 25.6307C21.1207 26.3225 24.8171 28.1673 28.9756 34.1629C31.2859 37.1606 36.5995 47.5376 57.3919 47.5376C76.7982 47.5376 81.6497 37.8524 82.8049 36.0077C83.96 34.1629 85.5772 28.6285 87.4254 27.0143C88.5805 25.8613 90.4287 25.4001 92.0459 25.6307C93.8942 25.6307 95.0493 26.5531 94.8183 28.3979C94.3562 31.1651 93.8942 32.3181 91.8149 32.5487C89.7357 32.7793 87.8875 32.7793 87.8875 33.0099C87.6564 33.7017 86.9633 36.6994 89.2736 36.93C91.5839 37.6218 94.1252 37.1606 96.2044 35.7771C98.0526 34.3935 98.5147 32.5487 99.2078 28.8591C99.6698 25.6307 98.5147 21.7105 94.8183 21.0187C91.1218 20.3269 85.5772 20.7881 83.0359 24.4777C80.0325 29.0897 77.7223 42.2338 58.085 42.2338C40.5269 42.2338 36.1374 33.4711 34.0582 30.9345C31.5169 27.2449 28.0515 24.2471 23.893 22.1717C19.0414 20.0963 13.9588 19.6351 8.87625 20.5575Z" fill="#011E41"/>
<path d="M68.0192 25.6314C68.0192 25.6314 66.402 24.709 60.1642 24.709C58.316 24.709 56.6988 24.709 55.3127 24.709C51.6162 24.9396 49.0749 25.4008 47.6888 27.015C45.8406 29.321 44.9165 44.0793 47.2267 44.3099C52.7714 45.2323 58.5471 45.2323 64.3227 45.0017C69.4053 44.3099 68.0192 25.6314 68.0192 25.6314ZM60.3953 40.6203C57.854 40.8509 55.3127 40.6203 52.5404 40.1591C51.3852 39.9285 51.8473 32.5494 52.7714 31.3964C53.6955 30.2434 55.0816 30.474 58.085 30.474C59.4712 30.474 60.6263 30.474 61.7814 30.9352C62.0125 30.9352 62.7055 40.3897 60.3953 40.6203Z" fill="#011E41"/>
<path d="M59.7022 18.0211C56.6988 17.7905 53.6955 19.4047 49.0749 22.4025C46.5337 24.0167 44.2234 25.6309 41.9131 27.4757C41.22 27.9369 40.527 28.3981 39.6028 28.8593C37.7546 29.7817 35.2133 25.1697 35.2133 25.1697C35.2133 25.1697 39.8339 21.2495 46.9957 16.1764C53.4645 11.795 56.9299 10.642 60.6263 10.8726C64.3227 11.1032 68.7122 14.5622 73.1017 18.7129C77.4913 22.8637 82.1118 27.2451 81.8808 28.8593C81.1877 30.4735 80.2636 31.8571 79.1085 33.2407C79.1085 33.2407 73.5638 27.0145 69.4053 23.3249C65.4779 20.3271 63.3986 18.4823 59.7022 18.0211Z" fill="#011E41"/>
<path d="M72.1776 12.0258C72.8707 11.334 77.7223 12.2564 77.7223 12.2564C77.7223 12.2564 77.9533 26.323 77.0292 27.2454C76.1051 28.1678 71.2535 20.558 71.2535 20.558C71.2535 17.5602 71.7156 14.793 72.1776 12.0258Z" fill="#011E41"/>
<path d="M11.4176 5.79935C12.5727 5.33815 13.4968 4.18515 13.7278 3.03215C14.1899 1.41796 14.6519 1.41796 15.114 2.80155C15.576 3.95455 16.7312 4.87695 17.8863 5.10755C19.2725 5.33815 19.2725 5.79935 17.8863 6.26054C16.7312 6.72174 15.8071 7.87474 15.576 9.02774C15.345 10.4113 14.883 10.4113 14.1899 9.02774C13.9589 8.10534 12.8037 7.18294 11.4176 6.95234C10.2624 6.49114 10.0314 6.02995 11.4176 5.79935Z" fill="#011E41"/>
<path d="M1.94544 2.80179C3.3316 2.80179 4.48673 2.10999 5.17981 0.956989C5.87289 -0.196008 6.33495 0.034591 6.56597 1.41819C6.56597 2.80178 7.25905 3.95478 8.41419 4.64658C9.56932 5.33838 9.56932 5.79958 7.95213 6.03018C6.56597 5.79958 5.41084 6.49138 4.71776 7.64437C4.02468 8.79737 3.56262 8.79737 3.3316 7.41377C3.3316 6.03018 2.63852 4.87718 1.48338 4.18538C0.328247 3.49358 0.559274 3.03238 1.94544 2.80179Z" fill="#011E41"/>
<path d="M6.79702 13.8705C7.95216 13.1787 8.64524 11.7951 8.64524 10.6421C8.64524 9.25854 9.10729 9.25854 9.80037 10.1809C10.4935 11.3339 11.6486 12.0257 13.0348 12.0257C14.4209 12.0257 14.6519 12.4869 13.4968 13.4093C12.3417 14.1011 11.6486 15.2541 11.6486 16.6377C11.6486 18.0213 11.1865 18.0213 10.2624 16.8683C9.56935 15.7153 8.41421 15.0235 7.02805 15.0235C5.64189 15.0235 5.64189 14.5623 6.79702 13.8705Z" fill="#011E41"/>
</svg>
