<svg width="13" height="16" viewBox="0 0 13 16" fill="none" xmlns="http://www.w3.org/2000/svg">
<path d="M6.50018 14.1557L2.6799 15.7991C2.12937 16.0362 1.60644 15.9906 1.11111 15.6622C0.615771 15.3344 0.368103 14.8762 0.368103 14.2876V2.59982C0.368103 2.12901 0.525834 1.73621 0.841295 1.42143C1.15676 1.10665 1.54955 0.948924 2.01968 0.948242H10.9817C11.4518 0.948242 11.8446 1.10597 12.1601 1.42143C12.4756 1.7369 12.6329 2.12969 12.6323 2.59982V14.2876C12.6323 14.8762 12.3846 15.3344 11.8893 15.6622C11.3939 15.9906 10.871 16.0362 10.3205 15.7991L6.50018 14.1557ZM6.50018 13.008L10.7262 14.8313C10.9354 14.9233 11.135 14.9038 11.3251 14.773C11.5152 14.6415 11.6103 14.4644 11.6103 14.2416V2.60084C11.6103 2.44345 11.5448 2.299 11.414 2.1675C11.2832 2.03601 11.1388 1.97026 10.9807 1.97026H2.01968C1.86229 1.97026 1.71784 2.03566 1.58634 2.16648C1.45484 2.2973 1.38944 2.44174 1.39012 2.59982V14.2426C1.39012 14.4654 1.48516 14.6422 1.67526 14.773C1.86535 14.9038 2.06499 14.9233 2.27416 14.8313L6.50018 13.008ZM6.50018 1.97026H1.39012H11.6103H6.50018Z" fill="#444444"/>
</svg>
