<svg width="199" height="44" viewBox="0 0 199 44" fill="none" xmlns="http://www.w3.org/2000/svg">
<g clip-path="url(#clip0_16_463)">
<path fill-rule="evenodd" clip-rule="evenodd" d="M19.9611 0.116211C18.7731 0.129139 17.807 0.142067 17.7939 0.142067C17.7417 0.206707 17.6373 0.400628 17.6373 0.439412C17.6373 0.465268 17.6242 0.504052 17.6112 0.51698C17.5981 0.529908 17.5851 0.555764 17.5851 0.581621C17.5851 0.607477 17.572 0.633333 17.5589 0.633333C17.5459 0.633333 17.5328 0.659189 17.5328 0.685045C17.5328 0.710901 17.5198 0.749686 17.5067 0.749686C17.4937 0.762614 17.4806 0.78847 17.4806 0.814326C17.4806 0.840182 17.4676 0.866037 17.4545 0.866037C17.4414 0.866037 17.4284 0.891894 17.4284 0.91775C17.4284 0.943606 17.4153 0.98239 17.4023 0.98239C17.3892 0.995318 17.3762 1.02117 17.3762 1.04703C17.3762 1.07289 17.3631 1.09874 17.3501 1.09874C17.3239 1.09874 17.2326 1.25388 17.2326 1.30559C17.2326 1.33145 17.2195 1.34438 17.2065 1.34438C17.1934 1.34438 17.1803 1.37023 17.1803 1.39609C17.1803 1.42194 17.1412 1.51244 17.102 1.59001C17.0628 1.66758 17.0367 1.73222 17.0498 1.73222C17.0629 1.73222 17.0498 1.75807 17.0237 1.78393C16.9584 1.8615 16.9192 1.95199 16.9192 2.00371C16.9192 2.02956 16.9062 2.04249 16.8931 2.04249C16.8801 2.04249 16.867 2.06835 16.867 2.10713C16.867 2.2752 17.1281 2.26227 13.4205 2.26227C9.79123 2.26227 9.96094 2.26227 9.96094 2.37862C9.96094 2.4174 9.94789 2.45619 9.93484 2.45619C9.92178 2.45619 9.90872 2.49497 9.90872 2.54668C9.90872 2.5984 9.88262 2.65011 9.86956 2.66304C9.84345 2.67597 9.8304 2.7406 9.81734 2.80524C9.77818 3.05088 9.76512 3.12845 9.73901 3.14137C9.72596 3.1543 9.7129 3.19309 9.7129 3.2448C9.7129 3.29651 9.69985 3.34822 9.68679 3.36115C9.67374 3.37408 9.66068 3.41286 9.66068 3.43872C9.66068 3.4775 9.64762 3.51629 9.63457 3.51629C9.62151 3.52922 9.60846 3.55507 9.60846 3.58093C9.60846 3.60678 9.5954 3.67142 9.58235 3.71021C9.56929 3.74899 9.54319 3.80071 9.54319 3.82656C9.54319 3.85242 9.53013 3.91706 9.51707 3.9817C9.50402 4.04634 9.49097 4.09805 9.49097 4.11098C9.49097 4.12391 9.47791 4.13683 9.46486 4.14976C9.34736 4.26612 9.1907 4.26612 13.29 4.27904C15.4049 4.29197 17.1542 4.3049 17.1934 4.31783C17.2848 4.35661 22.6765 4.34368 22.7418 4.31783C22.8331 4.26611 26.5669 4.25319 26.6974 4.29197C26.7627 4.31783 26.841 4.33075 26.8671 4.31783C26.8932 4.3049 26.9716 4.31783 27.0238 4.33075C27.1282 4.35661 27.2588 4.38247 27.5068 4.43418C27.559 4.44711 27.5982 4.46004 27.6113 4.47296C27.6243 4.48589 27.6504 4.49882 27.6896 4.49882C27.7288 4.49882 27.7679 4.51175 27.781 4.52468C27.8071 4.55053 27.9899 4.61517 28.0682 4.6281C28.0943 4.6281 28.1204 4.65396 28.1204 4.66688C28.1204 4.67981 28.1596 4.69274 28.1987 4.69274C28.2379 4.69274 28.264 4.70567 28.264 4.7186C28.264 4.73152 28.2901 4.74445 28.3162 4.74445C28.3423 4.74445 28.3685 4.75738 28.3685 4.77031C28.3685 4.79616 28.4468 4.83495 28.5382 4.87373C28.5643 4.88666 28.5904 4.89959 28.5904 4.91252C28.5904 4.92545 28.6034 4.93837 28.6296 4.93837C28.6557 4.93837 28.7079 4.97716 28.8645 5.10644C28.8776 5.11937 28.9168 5.13229 28.9298 5.13229C28.9429 5.13229 28.969 5.15815 28.9951 5.18401C29.0082 5.20986 29.0473 5.23572 29.0604 5.23572C29.0734 5.23572 29.0995 5.24865 29.0995 5.26157C29.0995 5.2745 29.1126 5.28743 29.1256 5.28743C29.1779 5.28743 29.6217 5.75284 29.687 5.86919C29.7131 5.9209 29.7653 5.98555 29.7915 6.0114C29.8176 6.03726 29.8437 6.07604 29.8437 6.1019C29.8437 6.12775 29.8567 6.15361 29.8698 6.15361C29.8828 6.15361 29.9089 6.19239 29.9351 6.23118C29.9742 6.30875 30.0003 6.34753 30.0656 6.41217C30.0787 6.43803 30.1048 6.46388 30.1048 6.48974C30.1048 6.51559 30.1178 6.52852 30.1309 6.52852C30.1439 6.52852 30.157 6.55438 30.157 6.58023C30.157 6.60609 30.17 6.63195 30.1831 6.63195C30.1962 6.63195 30.2092 6.6578 30.2092 6.68366C30.2092 6.7483 30.2745 6.87758 30.3006 6.87758C30.3136 6.87758 30.3398 6.92929 30.3528 7.00686C30.3789 7.0715 30.405 7.13614 30.4181 7.13614C30.4311 7.13614 30.4442 7.17493 30.4442 7.21371C30.4442 7.25249 30.4573 7.30421 30.4834 7.33006C30.5095 7.34299 30.5225 7.38177 30.5095 7.40763C30.4964 7.43349 30.5095 7.47227 30.5356 7.4852C30.5617 7.51105 30.5747 7.56277 30.5747 7.58862C30.5747 7.62741 30.5878 7.66619 30.6009 7.66619C30.6139 7.67912 30.627 7.73083 30.627 7.76962C30.627 7.8084 30.64 7.86011 30.6531 7.87304C30.6661 7.87304 30.6792 7.93768 30.6922 8.00232C30.6922 8.06696 30.7053 8.1316 30.7183 8.1316C30.7314 8.14453 30.7445 8.17039 30.7445 8.20917C30.7445 8.24795 30.7575 8.29967 30.7706 8.33845C30.862 8.51944 30.9795 10.2777 30.9011 10.5879C30.8881 10.6396 30.875 10.7689 30.862 10.8594C30.8228 11.2085 30.8097 11.2731 30.7836 11.299C30.7706 11.3119 30.7445 11.3765 30.7445 11.4412C30.7445 11.5058 30.7184 11.5575 30.7053 11.5575C30.6922 11.5575 30.6792 11.6092 30.6792 11.6739C30.6792 11.7385 30.6661 11.7773 30.6531 11.7773C30.64 11.7773 30.627 11.8032 30.627 11.829C30.627 11.8807 30.5747 12.0488 30.5356 12.1134C30.5225 12.1393 30.5095 12.1781 30.4964 12.191C30.4964 12.2169 30.4834 12.2427 30.4573 12.2427C30.4442 12.2427 30.4311 12.2686 30.4311 12.2944C30.4311 12.3203 30.4181 12.3591 30.405 12.372C30.392 12.3849 30.3659 12.4496 30.3528 12.5013C30.3398 12.553 30.3136 12.6047 30.3006 12.6047C30.2875 12.6047 30.2614 12.6435 30.2484 12.6952C30.1831 12.8503 30.157 12.915 30.1309 12.915C30.1178 12.915 30.1048 12.9408 30.1048 12.9667C30.1048 12.9925 30.0917 13.0184 30.0656 13.0184C30.0395 13.0184 30.0264 13.0313 30.0395 13.0443C30.0525 13.0572 30.0395 13.083 30.0134 13.1089C29.9873 13.1218 29.9742 13.1606 29.9742 13.1865C29.9742 13.2123 29.9612 13.2253 29.9481 13.2253C29.9351 13.2253 29.922 13.2382 29.922 13.264C29.922 13.277 29.8959 13.3287 29.8567 13.3545C29.8176 13.3804 29.7915 13.4192 29.7915 13.4321C29.7915 13.4838 29.3476 13.9751 29.2954 13.9751C29.2692 13.9751 29.2692 13.988 29.2823 14.0009C29.2954 14.0139 29.2823 14.0268 29.2562 14.0268C29.2301 14.0268 29.217 14.0397 29.217 14.0526C29.217 14.0656 29.1648 14.1173 29.1126 14.169C29.0604 14.2207 28.969 14.2983 28.9298 14.3371C28.8907 14.3758 28.8384 14.4146 28.8254 14.4146C28.8123 14.4146 28.7993 14.4276 28.7993 14.4405C28.7993 14.4534 28.7862 14.4663 28.7732 14.4663C28.7601 14.4663 28.7209 14.4922 28.6818 14.5181C28.6426 14.5439 28.5643 14.6086 28.486 14.6473C28.4076 14.6861 28.3554 14.7249 28.3554 14.7378C28.3554 14.7508 28.3423 14.7637 28.3162 14.7637C28.1465 14.7637 28.3293 15.0869 28.5904 15.242C28.6948 15.3067 28.7993 15.3584 28.7993 15.3713C28.8123 15.3842 28.9168 15.4489 29.0343 15.5394C29.1518 15.6169 29.2693 15.6945 29.2693 15.7074C29.2823 15.7204 29.3215 15.7592 29.3737 15.785C29.4781 15.8626 29.687 16.0565 29.9612 16.3538C30.1831 16.5865 30.2745 16.7029 30.4181 16.9485C30.4311 16.9744 30.5095 17.0907 30.5747 17.2071C30.6531 17.3234 30.7053 17.4269 30.7053 17.4269C30.7053 17.4398 30.7445 17.5174 30.7967 17.6079C31.1231 18.2672 31.2928 19.1204 31.2928 20.1805C31.2928 20.7752 31.2667 21.1243 31.2014 21.4216C31.1883 21.4475 31.1883 21.5121 31.1753 21.5509C31.1622 21.5897 31.1492 21.6543 31.1492 21.6931C31.1361 21.7319 31.1231 21.7965 31.1231 21.8353C31.11 21.8741 31.0969 21.9129 31.0969 21.9258C31.0839 21.9388 31.0708 21.9775 31.0708 22.0293C31.0578 22.068 31.0447 22.1198 31.0317 22.1327C31.0186 22.1456 30.9925 22.2361 30.9664 22.3266C30.8881 22.5981 30.4703 23.3867 30.3398 23.5031C30.3267 23.516 30.2875 23.5677 30.2353 23.6453C30.1048 23.8263 29.3867 24.5761 29.1256 24.7959C29.0473 24.8605 28.969 24.9251 28.9559 24.9381C28.9429 24.951 28.9037 24.9769 28.8907 24.9769C28.8776 24.9769 28.8645 24.9898 28.8776 25.0027C28.8907 25.0156 28.8645 25.0415 28.8384 25.0415C28.8123 25.0544 28.7862 25.0673 28.7862 25.0803C28.7862 25.0932 28.7601 25.1061 28.734 25.1061C28.7079 25.1061 28.6818 25.1191 28.6818 25.132C28.6818 25.1449 28.6034 25.1966 28.499 25.2483C28.3946 25.3001 28.264 25.3776 28.2118 25.4035C28.1596 25.4293 28.0812 25.4681 28.0551 25.4681C28.029 25.4681 27.9899 25.481 27.9768 25.494C27.9638 25.5069 27.9115 25.5198 27.8724 25.5328C27.8332 25.5328 27.794 25.5586 27.781 25.5715C27.7679 25.5845 27.7288 25.6103 27.6765 25.6103C27.6243 25.6103 27.5982 25.6233 27.5982 25.6362C27.5982 25.6491 27.546 25.662 27.4938 25.662C27.4416 25.662 27.3763 25.675 27.3632 25.6879C27.3502 25.7008 27.2588 25.7137 27.1805 25.7267C27.076 25.7267 27.0238 25.7396 27.0107 25.7655C26.9977 25.7913 26.9324 25.8042 26.7888 25.8042C26.6713 25.8042 26.5669 25.8172 26.5669 25.8301C26.5538 25.856 26.0969 25.856 24.8958 25.843C21.4363 25.7913 9.32125 25.8172 8.89044 25.8818C8.83822 25.8947 8.68156 25.9077 8.55101 25.9077C8.30296 25.9206 8.21158 25.9594 8.21158 26.0628C8.21158 26.0887 8.19852 26.1404 8.18547 26.1662C8.17241 26.1921 8.1463 26.2438 8.13325 26.2697C8.12019 26.2955 8.10714 26.3472 8.10714 26.3602C8.10714 26.386 8.08103 26.4119 8.06797 26.4119C8.04186 26.4248 8.02881 26.4506 8.04186 26.4894C8.05492 26.5153 8.04186 26.5411 8.02881 26.5411C8.0027 26.5411 7.91131 26.6963 7.91131 26.748C7.91131 26.7609 7.87215 26.8643 7.81993 26.9678C7.76771 27.0712 7.72855 27.1746 7.72855 27.2005C7.72855 27.2134 7.71549 27.2393 7.70243 27.2393C7.68938 27.2393 7.67632 27.2522 7.67632 27.278C7.67632 27.3168 7.63716 27.3944 7.53272 27.6012C7.51967 27.6271 7.50661 27.6659 7.50661 27.6917C7.50661 27.7176 7.49355 27.7305 7.4805 27.7176C7.46744 27.7047 7.45439 27.7305 7.45439 27.7693C7.45439 27.8081 7.44133 27.8339 7.42828 27.8339C7.41522 27.8339 7.40217 27.8469 7.41522 27.8598C7.42828 27.8727 7.41523 27.9115 7.40217 27.9374L7.37606 28.002H3.9426C0.0783294 28.002 0.430815 27.9762 0.404705 28.2089C0.404705 28.2735 0.378595 28.3252 0.36554 28.3381C0.352485 28.3511 0.33943 28.4028 0.33943 28.4545C0.33943 28.5062 0.326374 28.5579 0.313319 28.5838C0.300264 28.5967 0.28721 28.6613 0.274155 28.726C0.2611 28.7906 0.248045 28.8423 0.23499 28.8553C0.221935 28.8682 0.221935 28.907 0.20888 28.9458C0.20888 28.9845 0.182769 29.1009 0.156659 29.1914C0.130549 29.2948 0.104439 29.4112 0.0913844 29.4629C0.0783294 29.5146 0.0652741 29.5792 0.0522191 29.5922C0.0391641 29.6051 0.0261107 29.7085 0.0130558 29.8249L0 30.0188H0.0783306C0.117496 30.0188 0.15666 30.0317 0.169715 30.0446C0.18277 30.0576 0.221935 30.0705 0.274155 30.0705C0.31332 30.0705 0.39165 30.0964 0.430815 30.1222C0.548309 30.1998 27.8854 30.1998 28.0029 30.1222C28.0551 30.0964 28.1335 30.0705 28.2249 30.0705C28.3032 30.0705 28.3815 30.0576 28.3946 30.0446C28.4076 30.0317 28.4729 30.0188 28.5643 30.0188C28.6557 30.0188 28.7209 30.0059 28.734 29.9929C28.7471 29.98 28.8123 29.9671 28.8907 29.9671C28.969 29.9671 29.0212 29.9542 29.0082 29.9412C28.9951 29.9154 29.0604 29.8895 29.1648 29.8895C29.204 29.8895 29.2562 29.8766 29.2562 29.8637C29.2693 29.8507 29.3084 29.8378 29.3476 29.8378C29.4129 29.8378 29.5303 29.8119 29.674 29.7602C29.7001 29.7473 29.7915 29.7214 29.8567 29.7085C29.922 29.6956 30.0264 29.6568 30.0787 29.6309C30.2614 29.5534 30.3136 29.5275 30.3659 29.5146C30.392 29.5017 30.4442 29.4887 30.4834 29.4887C30.5225 29.4887 30.5486 29.4758 30.5486 29.4629C30.5486 29.45 30.5747 29.437 30.6139 29.437C30.6531 29.437 30.6922 29.4241 30.6922 29.3982C30.7053 29.3724 30.7314 29.3595 30.7706 29.3595C30.8097 29.3595 30.8228 29.3465 30.8228 29.3336C30.8228 29.3207 30.8489 29.3077 30.8881 29.3077C30.9272 29.3077 30.9533 29.2948 30.9533 29.2819C30.9533 29.269 30.9795 29.256 31.0056 29.256C31.0317 29.256 31.0708 29.2431 31.0708 29.2302C31.0839 29.2173 31.1361 29.1785 31.1883 29.1526C31.2405 29.1268 31.3189 29.088 31.358 29.075C31.3972 29.0621 31.4625 29.0233 31.5016 28.9975C31.5408 28.9716 31.593 28.9458 31.6191 28.9458C31.6453 28.9458 31.6844 28.9199 31.7366 28.8811C31.7758 28.8423 31.828 28.8165 31.8541 28.8165C31.8802 28.8165 31.8933 28.8036 31.8933 28.7906C31.8933 28.7777 31.9064 28.7648 31.9325 28.7648C31.9586 28.7648 31.9847 28.7518 32.0108 28.726C32.0238 28.7001 32.05 28.6872 32.063 28.7001C32.063 28.7001 32.1022 28.6872 32.1413 28.6484C32.1805 28.6096 32.2197 28.5838 32.2458 28.5838C32.298 28.5838 33.1335 27.9891 33.2249 27.8857C33.251 27.8598 33.2771 27.8339 33.2902 27.8339C33.3032 27.8339 33.3816 27.7693 33.4599 27.7047C33.6427 27.5366 33.721 27.472 33.7471 27.472C33.7602 27.472 33.7732 27.459 33.7732 27.4461C33.7732 27.4202 34.0474 27.1358 34.0735 27.1358C34.0865 27.1358 34.1518 27.0712 34.2171 27.0066C34.6218 26.5929 34.9221 26.2826 35.0265 26.1533C35.0918 26.0757 35.2093 25.9465 35.2745 25.8818C35.3398 25.8172 35.392 25.7525 35.392 25.7396C35.392 25.7267 35.4443 25.662 35.5226 25.5845C35.5879 25.5198 35.6531 25.4423 35.6531 25.4164C35.6531 25.3905 35.6662 25.3647 35.6923 25.3647C35.7184 25.3518 35.7315 25.3388 35.7184 25.3259C35.7054 25.313 35.7184 25.3001 35.7445 25.3001C35.7706 25.3001 35.7837 25.2871 35.7706 25.2742C35.7576 25.2613 35.7837 25.2225 35.8228 25.1837C35.862 25.1449 35.8881 25.1061 35.8881 25.0932C35.8881 25.0803 35.9142 25.0415 35.9403 25.0286C36.0056 24.9769 36.2014 24.6795 36.2014 24.6407C36.2014 24.6278 36.2145 24.6149 36.2276 24.6278C36.2406 24.6407 36.2537 24.6278 36.2537 24.6019C36.2537 24.5761 36.2798 24.5373 36.3059 24.4985C36.332 24.4597 36.3581 24.4209 36.3581 24.408C36.3581 24.3822 36.3842 24.3563 36.4103 24.3305C36.4364 24.3046 36.4887 24.24 36.5148 24.1753C36.5409 24.1107 36.58 24.059 36.5931 24.059C36.6061 24.059 36.6192 24.046 36.6192 24.0331C36.6192 24.0202 36.6323 23.9943 36.6453 23.9685C36.6975 23.9038 36.802 23.7358 36.8672 23.6194C36.9064 23.5548 36.9586 23.4643 36.9847 23.4126C37.0108 23.3608 37.037 23.3091 37.037 23.2962C37.037 23.2703 37.05 23.2445 37.0761 23.2186C37.1545 23.1281 37.1806 23.0894 37.1806 23.0764C37.1675 23.0506 37.2458 22.8954 37.2719 22.8954C37.285 22.8954 37.2981 22.8825 37.2981 22.8696C37.2981 22.8566 37.3242 22.792 37.3503 22.7274C37.3764 22.6627 37.4025 22.5981 37.4025 22.5722C37.4025 22.5464 37.4156 22.5334 37.4286 22.5334C37.4417 22.5334 37.4547 22.5205 37.4547 22.5076C37.4547 22.4947 37.4678 22.443 37.4939 22.3912C37.52 22.3395 37.5461 22.262 37.5722 22.2102C37.5853 22.1585 37.6114 22.1198 37.6375 22.1198C37.6505 22.1198 37.6636 22.0939 37.6636 22.0551C37.6636 22.0163 37.6767 21.9905 37.6897 21.9905C37.7028 21.9905 37.7158 21.9646 37.7158 21.9258C37.7158 21.887 37.7289 21.8612 37.7419 21.8741C37.755 21.887 37.768 21.8483 37.768 21.7966C37.768 21.7448 37.7811 21.6931 37.7941 21.6931C37.8072 21.6802 37.8725 21.5251 37.9508 21.3182C37.9639 21.2665 37.99 21.2277 38.003 21.2277C38.0161 21.2277 38.0291 21.1889 38.0291 21.1501C38.0291 21.0984 38.0422 21.0726 38.0552 21.0726C38.0683 21.0726 38.0814 21.0338 38.0814 20.995C38.0814 20.9562 38.0944 20.9045 38.1075 20.8916C38.1205 20.8787 38.1336 20.8399 38.1466 20.8011C38.1466 20.7623 38.1727 20.7106 38.1858 20.6847C38.1989 20.6589 38.2119 20.633 38.2119 20.6201C38.2119 20.6072 38.238 20.5425 38.2511 20.465C38.2641 20.4003 38.2902 20.3098 38.3033 20.271C38.3163 20.2323 38.3163 20.1676 38.3294 20.1418C38.3425 20.103 38.3555 20.09 38.3686 20.103C38.3947 20.1159 38.3947 20.09 38.3816 20.0254C38.3686 19.9608 38.3816 19.922 38.4077 19.9091C38.4338 19.8961 38.4469 19.8444 38.4469 19.7668C38.4469 19.6893 38.46 19.6505 38.473 19.6634C38.4861 19.6764 38.4991 19.6376 38.4991 19.56C38.4991 19.4954 38.5122 19.4307 38.5252 19.4307C38.5383 19.4307 38.5513 19.379 38.5513 19.3144C38.5513 19.2497 38.5774 19.1851 38.5905 19.1722C38.6035 19.1592 38.6297 19.0817 38.6297 19.0041C38.6297 18.9265 38.6558 18.836 38.6688 18.7972C38.6819 18.7585 38.6949 18.6809 38.6949 18.6163C38.6949 18.5516 38.708 18.487 38.721 18.474C38.7472 18.4482 38.7602 18.3706 38.7994 17.9052C38.8124 17.8018 38.8255 17.7113 38.8385 17.6984C38.8516 17.6854 38.8647 17.5691 38.8647 17.4398C38.8647 17.3105 38.8777 17.2071 38.8908 17.2071C38.9038 17.2071 38.9169 17.1425 38.9169 17.0778C38.9169 17.0002 38.9299 16.8193 38.943 16.6641C38.9691 16.2633 38.9691 14.2724 38.943 13.8329C38.9299 13.626 38.9169 13.4321 38.9169 13.3933C38.9169 13.3545 38.9038 13.3287 38.8908 13.3287C38.8777 13.3287 38.8647 13.2253 38.8647 13.0701C38.8647 12.9279 38.8516 12.8116 38.8385 12.8116C38.8255 12.8116 38.8124 12.7081 38.7994 12.5659C38.7733 12.1781 38.7472 11.9971 38.721 11.9712C38.708 11.9583 38.6949 11.8678 38.6949 11.7644C38.6949 11.661 38.6819 11.5834 38.6688 11.5705C38.6558 11.5575 38.6427 11.5058 38.6427 11.4412C38.6427 11.3765 38.6166 11.3119 38.6036 11.2731C38.5774 11.2214 38.5383 11.0533 38.5122 10.8206C38.4991 10.756 38.4861 10.7043 38.473 10.7043C38.46 10.7043 38.4469 10.6526 38.4469 10.6009C38.4469 10.5362 38.4338 10.4845 38.4208 10.4716C38.4077 10.4587 38.3947 10.4199 38.3816 10.3682C38.3686 10.3164 38.3555 10.2389 38.3294 10.1872C38.2772 10.045 38.2641 10.0191 38.2641 9.96739C38.1989 9.64418 38.1858 9.57954 38.1597 9.57954C38.1466 9.57954 38.1466 9.55369 38.1466 9.52783C38.1597 9.50197 38.1466 9.46319 38.1205 9.43733C38.0944 9.42441 38.0814 9.35977 38.0814 9.30805C38.0814 9.25634 38.0683 9.21756 38.0552 9.20463C38.0422 9.20463 38.0291 9.16584 38.0161 9.11413C38.0161 9.07535 38.003 9.03656 37.99 9.03656C37.9769 9.03656 37.9639 9.01071 37.9639 8.97192C37.9639 8.93314 37.9378 8.89436 37.9247 8.89436C37.8986 8.88143 37.8855 8.85557 37.8986 8.81679C37.9116 8.778 37.8986 8.75215 37.8725 8.73922C37.8464 8.72629 37.8333 8.70044 37.8333 8.67458C37.8333 8.64872 37.8203 8.60994 37.8072 8.59701C37.7941 8.58408 37.7811 8.5453 37.7811 8.51944C37.7811 8.48066 37.768 8.44187 37.755 8.44187C37.7419 8.42895 37.7289 8.40309 37.7289 8.37723C37.7289 8.35138 37.7158 8.31259 37.6897 8.29967C37.6767 8.28674 37.6505 8.26088 37.6505 8.24795C37.6505 8.23503 37.6244 8.18331 37.5983 8.11867C37.5722 8.05403 37.5461 8.00232 37.5461 7.98939C37.5461 7.96354 37.4025 7.65326 37.3764 7.62741C37.3633 7.61448 37.3503 7.58862 37.3503 7.56277C37.3503 7.53691 37.3372 7.49813 37.3242 7.49813C37.3111 7.4852 37.2981 7.45934 37.2981 7.43349C37.2981 7.40763 37.2719 7.35592 37.2589 7.34299C37.2458 7.31713 37.2328 7.29128 37.2458 7.27835C37.2589 7.26542 37.2458 7.25249 37.2328 7.26542C37.2067 7.27835 37.1936 7.25249 37.2067 7.21371C37.2067 7.20078 37.1936 7.18785 37.1675 7.17493C37.1414 7.162 37.1153 7.13614 37.1153 7.11029C37.1153 7.08443 37.1022 7.0715 37.0892 7.0715C37.0761 7.0715 37.0631 7.05857 37.0631 7.03272C37.0631 6.981 36.9847 6.82587 36.9456 6.80001C36.9325 6.78709 36.9325 6.77416 36.9325 6.76123C36.9456 6.7483 36.9325 6.73537 36.9195 6.73537C36.9064 6.73537 36.8803 6.69659 36.8542 6.64488C36.815 6.54145 36.7236 6.39924 36.6323 6.29582C36.6061 6.25703 36.58 6.20532 36.58 6.17947C36.58 6.15361 36.567 6.12775 36.5539 6.12775C36.5409 6.12775 36.5278 6.11483 36.5278 6.08897C36.5278 6.06311 36.5148 6.03726 36.4886 6.03726C36.4625 6.02433 36.4495 6.0114 36.4495 5.98555C36.4495 5.95969 36.4234 5.93383 36.3973 5.90798C36.3712 5.88212 36.345 5.84334 36.345 5.80455C36.345 5.76577 36.332 5.73991 36.3189 5.73991C36.3059 5.73991 36.2276 5.64942 36.1492 5.54599C36.0709 5.42964 35.9664 5.30036 35.9142 5.23572C35.862 5.17108 35.8098 5.11937 35.8098 5.10644C35.8098 5.08058 35.7706 5.02887 35.5879 4.83495C35.5356 4.78324 35.4834 4.70567 35.4704 4.66688C35.4312 4.60224 35.2223 4.36954 34.5826 3.73606C34.3476 3.50336 34.1518 3.29651 34.1518 3.29651C34.1518 3.28358 34.0735 3.20601 34.0474 3.20601C34.0343 3.20601 33.9952 3.18016 33.969 3.14137C33.9299 3.10259 33.8907 3.07673 33.8907 3.07673C33.8777 3.07673 33.8385 3.03795 33.7863 2.98624C33.6166 2.8311 33.4338 2.66304 33.4207 2.66304C33.4077 2.66304 33.3816 2.63718 33.3424 2.5984C33.3163 2.55961 33.238 2.5079 33.1857 2.46912C33.1335 2.43033 33.0552 2.37862 33.0291 2.33984C33.003 2.30105 32.9638 2.2752 32.9508 2.2752C32.9377 2.2752 32.8855 2.23641 32.8333 2.19763C32.781 2.14591 32.7288 2.12006 32.7158 2.12006C32.7027 2.12006 32.6635 2.0942 32.6244 2.05542C32.5852 2.01663 32.546 1.99078 32.5199 1.99078C32.5069 1.99078 32.4808 1.97785 32.4808 1.96492C32.4808 1.95199 32.4677 1.93907 32.4416 1.93907C32.4155 1.93907 32.4024 1.92614 32.4024 1.90028C32.4024 1.87443 32.3763 1.8615 32.3502 1.8615C32.3241 1.8615 32.298 1.84857 32.2849 1.83564C32.2719 1.79686 31.8802 1.5383 31.7758 1.51244C31.7497 1.49951 31.7236 1.48658 31.7236 1.47366C31.7236 1.46073 31.6975 1.4478 31.6714 1.4478C31.6453 1.4478 31.6191 1.43487 31.6191 1.42194C31.6191 1.40902 31.6061 1.39609 31.58 1.39609C31.5539 1.39609 31.5278 1.38316 31.5147 1.3573C31.5016 1.33145 31.4233 1.27973 31.3319 1.24095C31.2536 1.20217 31.1231 1.13753 31.0447 1.08581C30.9664 1.04703 30.8881 1.00825 30.862 1.00825C30.8358 1.00825 30.8097 0.995318 30.7967 0.969462C30.7836 0.943606 30.7706 0.930677 30.7445 0.930677C30.6792 0.930677 30.3789 0.801397 30.3659 0.775541C30.3659 0.762613 30.3267 0.749686 30.2875 0.749686C30.2484 0.749686 30.2092 0.736757 30.2092 0.723829C30.1962 0.710901 30.157 0.697973 30.1048 0.697973C30.0656 0.697973 30.0264 0.685045 30.0264 0.672116C30.0264 0.659188 30.0003 0.646261 29.9612 0.646261C29.922 0.646261 29.8828 0.633332 29.8567 0.607476C29.8437 0.58162 29.7914 0.568693 29.7392 0.568693C29.7001 0.568693 29.6478 0.555764 29.6478 0.542836C29.6348 0.529908 29.5826 0.51698 29.5303 0.51698C29.4781 0.51698 29.4259 0.504053 29.4129 0.491125C29.3998 0.478197 29.3606 0.465268 29.3215 0.465268C29.2823 0.465268 29.217 0.45234 29.1909 0.426484C29.1648 0.400628 29.0865 0.3877 29.0343 0.3877C28.982 0.3877 28.9168 0.374772 28.9037 0.361844C28.8907 0.348916 28.8123 0.335988 28.734 0.32306C28.3815 0.284275 28.3162 0.271347 28.2771 0.258419C28.1596 0.206707 27.546 0.180851 26.8671 0.193779C25.7052 0.219635 22.2718 0.219635 22.2457 0.206707C22.1282 0.116211 21.1491 0.116211 19.9611 0.116211Z" fill="url(#paint0_linear_16_463)"/>
<path fill-rule="evenodd" clip-rule="evenodd" d="M16.7755 6.6323C16.7755 6.64523 16.7625 6.65816 16.7363 6.65816C16.7102 6.65816 16.6972 6.68401 16.6972 6.70987C16.6972 6.73572 16.6841 6.77451 16.6711 6.77451C16.658 6.78744 16.645 6.82622 16.645 6.86501C16.645 6.90379 16.6319 6.92965 16.6189 6.92965C16.6058 6.92965 16.5927 6.9555 16.5927 6.99429C16.5927 7.03307 16.5797 7.07185 16.5536 7.08478C16.5275 7.09771 16.5144 7.12357 16.5144 7.14942C16.5144 7.17528 16.5014 7.21406 16.4883 7.21406C16.4752 7.22699 16.4622 7.25285 16.4622 7.2787C16.4622 7.30456 16.4491 7.33041 16.4361 7.33041C16.423 7.33041 16.3839 7.40798 16.3316 7.51141C16.2794 7.61483 16.2403 7.71826 16.2272 7.74411C16.2141 7.76997 16.2011 7.80875 16.2011 7.83461C16.2011 7.86047 16.188 7.87339 16.175 7.87339C16.1619 7.87339 16.1489 7.89925 16.1489 7.93803C16.1489 7.97682 16.1358 8.00267 16.1228 8.00267C16.1097 8.00267 16.0967 8.02853 16.0967 8.06731C16.0967 8.1061 16.0836 8.13195 16.0575 8.13195C16.0314 8.13195 16.0183 8.14488 16.0314 8.19659C16.0444 8.24831 16.0314 8.27416 16.0053 8.28709C15.9792 8.30002 15.9661 8.3388 15.9661 8.36466C15.9661 8.40344 15.953 8.4293 15.94 8.4293C15.9269 8.4293 15.9139 8.45516 15.9139 8.48101C15.9139 8.50687 15.9008 8.53272 15.8878 8.53272C15.8747 8.53272 15.8617 8.55858 15.8617 8.58444C15.8617 8.70079 15.9269 8.70079 12.2846 8.70079C10.3655 8.70079 8.74671 8.70079 8.70754 8.70079C8.65532 8.70079 8.62921 8.71372 8.62921 8.73957C8.62921 8.76543 8.61615 8.79128 8.59004 8.79128C8.56393 8.80421 8.55088 8.843 8.55088 8.89471C8.55088 8.94642 8.53782 8.97228 8.52477 8.97228C8.51171 8.97228 8.49866 9.01106 8.49866 9.04985C8.49866 9.08863 8.4856 9.14034 8.45949 9.15327C8.43338 9.1662 8.40728 9.24377 8.38117 9.32134C8.35506 9.3989 8.32895 9.46354 8.31589 9.46354C8.30284 9.46354 8.28978 9.50233 8.28978 9.54111C8.28978 9.5799 8.27673 9.63161 8.25062 9.65746C8.22451 9.68332 8.18534 9.77382 8.15923 9.86431C8.13312 9.95481 8.09395 10.0712 8.06784 10.1229C8.04173 10.1746 8.02868 10.2263 8.04174 10.2392C8.05479 10.2522 8.04174 10.278 8.01563 10.3039C7.98952 10.3168 7.97646 10.3685 7.97646 10.4073C7.97646 10.4461 7.96341 10.4719 7.95035 10.4719C7.9373 10.4719 7.92424 10.5107 7.92424 10.5495C7.92424 10.5883 7.91119 10.64 7.89813 10.6529C7.88508 10.6659 7.87202 10.7176 7.87202 10.7693V10.8598H15.7964C22.8461 10.8598 23.7469 10.8598 23.7469 10.821C23.7469 10.7951 23.7599 10.7822 23.786 10.7822C23.8121 10.7822 23.8252 10.7563 23.8252 10.7046C23.8252 10.6659 23.8383 10.6141 23.8644 10.6012C23.8905 10.5883 23.9166 10.5107 23.9427 10.4331C23.9688 10.3556 23.9949 10.2909 24.008 10.278C24.021 10.2651 24.0341 10.2392 24.0341 10.2004C24.0341 10.1617 24.0471 10.1229 24.0602 10.1229C24.0732 10.1099 24.0863 10.0712 24.0863 10.0324C24.0863 9.99359 24.0994 9.96774 24.1124 9.96774C24.1255 9.96774 24.1385 9.92895 24.1385 9.89017C24.1385 9.85138 24.1516 9.8126 24.1646 9.8126C24.1777 9.8126 24.1907 9.78674 24.1907 9.74796C24.1907 9.70918 24.2038 9.67039 24.2168 9.65746C24.2299 9.64454 24.243 9.60575 24.243 9.55404C24.243 9.4894 24.256 9.47647 24.2952 9.4894C24.3343 9.50233 24.3343 9.4894 24.3213 9.41183C24.3082 9.33426 24.3082 9.30841 24.3474 9.30841C24.3735 9.30841 24.3866 9.28255 24.3866 9.24377C24.3866 9.20498 24.3996 9.1662 24.4127 9.15327C24.4257 9.14034 24.4388 9.10156 24.4388 9.0757C24.4388 9.03692 24.4518 8.99813 24.4649 8.99813C24.4779 8.98521 24.491 8.94642 24.491 8.89471C24.491 8.843 24.5041 8.81714 24.5302 8.81714C24.5432 8.81714 24.5824 8.7525 24.6085 8.67493C24.6346 8.59736 24.6868 8.44223 24.726 8.3388C24.7652 8.23538 24.7913 8.11903 24.7913 8.08024C24.7913 8.04146 24.8174 8.0156 24.8304 8.00267C24.8565 7.98974 24.8696 7.95096 24.8696 7.89925C24.8696 7.84754 24.8827 7.82168 24.8957 7.82168C24.9088 7.82168 24.9218 7.7829 24.9218 7.74411C24.9218 7.70533 24.9349 7.66654 24.9479 7.66654C24.961 7.66654 24.974 7.64069 24.974 7.61483C24.974 7.58898 24.9871 7.53726 25.0132 7.52434C25.0393 7.49848 25.0524 7.4597 25.0393 7.43384C25.0263 7.39506 25.0393 7.3692 25.0654 7.35627C25.0915 7.34334 25.1046 7.30456 25.1046 7.25285C25.1046 7.21406 25.1176 7.17528 25.1307 7.17528C25.1438 7.17528 25.1568 7.14942 25.1568 7.11064C25.1568 7.07185 25.1699 7.046 25.1829 7.046C25.196 7.046 25.209 7.00721 25.209 6.9555C25.209 6.89086 25.2221 6.85208 25.2482 6.83915C25.2743 6.82622 25.2874 6.78744 25.2874 6.7228L25.2743 6.61937L21.0053 6.60645C18.2116 6.60645 16.7755 6.61937 16.7755 6.6323ZM14.3212 13.2515C14.2951 13.2644 14.2559 13.3032 14.2428 13.342C14.2298 13.3807 14.2037 13.4195 14.1906 13.4195C14.1776 13.4195 14.1515 13.4583 14.1384 13.51C14.1254 13.5617 14.0862 13.6134 14.0601 13.6134C14.034 13.6264 14.0209 13.6522 14.0209 13.6781C14.0209 13.7039 13.9948 13.7427 13.9556 13.7815C13.9165 13.8074 13.8904 13.8591 13.8904 13.8849C13.8904 13.9108 13.8773 13.9366 13.8643 13.9366C13.8512 13.9366 13.8381 13.9496 13.8381 13.9754C13.8381 14.0013 13.812 14.0401 13.7859 14.0659C13.7337 14.1306 13.6162 14.2986 13.564 14.415C13.5379 14.4538 13.5118 14.4926 13.4987 14.4926C13.4857 14.4926 13.4726 14.5184 13.4726 14.5572C13.4726 14.596 13.4595 14.6218 13.4465 14.6089C13.4334 14.596 13.4204 14.6218 13.4204 14.6477C13.4204 14.6735 13.4073 14.6994 13.3943 14.6994C13.3812 14.6994 13.3682 14.7123 13.3682 14.7382C13.3682 14.764 13.3551 14.7899 13.329 14.7899C13.3029 14.8028 13.2898 14.8158 13.2898 14.8416C13.2898 14.958 13.3812 14.945 9.63444 14.945C5.731 14.945 5.97905 14.9321 5.97905 15.1002C5.97905 15.139 5.966 15.1648 5.95294 15.1648C5.93989 15.1648 5.92683 15.2165 5.92683 15.2812C5.92683 15.3458 5.91378 15.3975 5.90072 15.3975C5.88767 15.3975 5.87461 15.4363 5.87461 15.488C5.87461 15.5397 5.8485 15.5914 5.83545 15.6173C5.80934 15.6432 5.79628 15.6949 5.80934 15.7207C5.82239 15.7595 5.80933 15.7983 5.78322 15.8112C5.75711 15.8241 5.74406 15.8888 5.74406 15.9276C5.74406 15.9664 5.731 16.031 5.71795 16.031C5.7049 16.0439 5.69184 16.0827 5.69184 16.1215C5.69184 16.1603 5.67879 16.212 5.66573 16.212C5.65268 16.2249 5.63962 16.2766 5.63962 16.3283C5.63962 16.38 5.62657 16.4188 5.61351 16.4059C5.60046 16.393 5.57435 16.4318 5.57435 16.4964C5.56129 16.5481 5.54824 16.6386 5.53518 16.6774C5.52213 16.7162 5.50907 16.7937 5.52213 16.8455L5.53518 16.936L13.4596 16.9489C22.0889 16.9618 21.4753 16.9618 21.4753 16.8196C21.4753 16.7937 21.4884 16.7679 21.5014 16.755C21.5145 16.742 21.5275 16.7032 21.5275 16.6774C21.5275 16.6386 21.5406 16.5998 21.5536 16.5998C21.5667 16.5869 21.5797 16.561 21.5797 16.5352C21.5797 16.5093 21.5928 16.4835 21.6059 16.4835C21.6189 16.4835 21.632 16.4576 21.632 16.4318C21.632 16.4059 21.645 16.3671 21.6711 16.3413C21.6972 16.3283 21.7103 16.2766 21.7103 16.2378C21.7103 16.1991 21.7233 16.1603 21.7364 16.1603C21.7495 16.1473 21.7625 16.1086 21.7625 16.0698C21.7625 16.031 21.7756 16.0051 21.7886 16.0051C21.8017 16.0051 21.8147 15.9793 21.8147 15.9405C21.8147 15.9017 21.8278 15.8629 21.8408 15.85C21.8539 15.8371 21.867 15.8112 21.867 15.7854C21.867 15.7595 21.88 15.7336 21.9061 15.7207C21.9322 15.7078 21.9453 15.669 21.9453 15.6173C21.9453 15.5656 21.9583 15.5397 21.9714 15.5397C21.9844 15.5397 21.9975 15.5139 21.9975 15.488C21.9975 15.4622 22.0106 15.4234 22.0236 15.4234C22.0367 15.4104 22.0497 15.3717 22.0497 15.3329C22.0497 15.2941 22.0628 15.2682 22.0758 15.2682C22.0889 15.2682 22.1019 15.2424 22.1019 15.2036C22.1019 15.1648 22.115 15.139 22.128 15.139C22.1411 15.139 22.1672 15.1002 22.1672 15.0614C22.1803 15.0097 22.1933 14.9709 22.2064 14.958C22.2194 14.945 22.2325 14.9063 22.2325 14.8804C22.2325 14.8545 22.2455 14.8158 22.2586 14.8158C22.2717 14.8158 22.2847 14.7899 22.2847 14.7511C22.2847 14.7123 22.2978 14.6865 22.3108 14.6865C22.3239 14.6865 22.3369 14.6606 22.3369 14.6218C22.3369 14.5831 22.35 14.5443 22.363 14.5443C22.4022 14.5184 22.4805 14.3633 22.4805 14.2857C22.4805 14.2469 22.4936 14.2211 22.5066 14.2211C22.5197 14.2211 22.5328 14.1952 22.5328 14.1564C22.5328 14.1176 22.5458 14.0918 22.5589 14.0918C22.5719 14.0918 22.585 14.0659 22.585 14.0271C22.585 13.9884 22.598 13.9496 22.6241 13.9496C22.6502 13.9366 22.6633 13.8979 22.6633 13.8591C22.6633 13.8203 22.6764 13.7815 22.6894 13.7815C22.7025 13.7686 22.7286 13.7039 22.7547 13.6264C22.7808 13.5488 22.8069 13.4842 22.82 13.4842C22.833 13.4842 22.8461 13.4325 22.833 13.3807L22.82 13.2773H18.5902C16.2664 13.2515 14.3473 13.2515 14.3212 13.2515ZM11.893 19.5086C11.8668 19.5345 11.8407 19.5862 11.8407 19.5991C11.8407 19.625 11.8277 19.6379 11.8146 19.6379C11.8016 19.6379 11.7755 19.6638 11.7755 19.7026C11.7624 19.7413 11.7493 19.7672 11.7363 19.7672C11.7232 19.7672 11.6971 19.806 11.671 19.8577C11.6449 19.9094 11.5927 19.9999 11.5535 20.0516C11.5144 20.1163 11.4752 20.1809 11.4621 20.2067C11.4491 20.2326 11.436 20.2585 11.423 20.2585C11.4099 20.2585 11.3969 20.2843 11.3969 20.3102C11.3969 20.336 11.3708 20.3877 11.3446 20.4136C11.3185 20.4524 11.2924 20.4912 11.2924 20.517C11.2924 20.5429 11.2794 20.5687 11.2533 20.5817C11.2402 20.5946 11.201 20.6334 11.188 20.6722C11.0966 20.8273 11.0835 20.8532 11.0444 20.8919C11.0313 20.9178 11.0052 20.9437 11.0052 20.9566C11.0052 20.9695 10.9791 21.0083 10.953 21.0471C10.9269 21.0859 10.9008 21.1246 10.9008 21.1505C10.9008 21.1764 10.8877 21.2022 10.8747 21.2022C10.8616 21.2022 10.8486 21.2151 10.8486 21.241C10.8486 21.2668 10.8224 21.3056 10.7833 21.3573C10.7441 21.3961 10.718 21.4478 10.718 21.4737C10.718 21.4996 10.7049 21.5125 10.6919 21.5125C10.6788 21.5125 10.6658 21.5383 10.6658 21.5642C10.6658 21.7193 10.9138 21.7064 7.02345 21.7193L3.45944 21.7323L3.44639 21.8228C3.44639 21.8745 3.42028 21.9262 3.40722 21.952C3.39417 21.965 3.38111 22.0038 3.38111 22.0425C3.38111 22.0813 3.36806 22.1201 3.34195 22.133C3.31584 22.146 3.30278 22.1977 3.30278 22.2494C3.30278 22.2882 3.28973 22.3399 3.27667 22.3399C3.26362 22.3528 3.25056 22.3916 3.25056 22.4433C3.25056 22.4821 3.23751 22.5209 3.22445 22.5209C3.2114 22.5209 3.19834 22.5597 3.19834 22.6114C3.19834 22.6631 3.18529 22.7019 3.17223 22.7019C3.15918 22.7019 3.14612 22.7406 3.14612 22.7924C3.14612 22.857 3.13307 22.8829 3.10696 22.8829C3.08085 22.8829 3.06779 22.9087 3.06779 22.9734C3.06779 23.0251 3.05474 23.0639 3.04168 23.0639C3.02863 23.0639 3.01557 23.1026 3.01557 23.1414C3.01557 23.1802 3.00252 23.2319 2.98946 23.2448C2.97641 23.2578 2.96335 23.2966 2.96335 23.3353C2.96335 23.3741 2.9503 23.4258 2.93724 23.4258C2.92419 23.4388 2.91113 23.4775 2.91113 23.5293V23.6068H3.32889C3.58999 23.6068 3.74665 23.5939 3.77276 23.581C3.79887 23.5551 3.82498 23.5551 3.86415 23.581C3.98164 23.6456 18.8251 23.6198 18.8382 23.5551C18.8513 23.5293 18.8643 23.5034 18.8774 23.5163C18.8904 23.5293 18.9035 23.5034 18.8904 23.4517C18.8774 23.3871 18.8904 23.3612 18.9165 23.3612C18.9426 23.3612 18.9557 23.3353 18.9557 23.3095C18.9557 23.2836 18.9818 23.1931 19.021 23.1285C19.0601 23.0509 19.0862 22.9734 19.0862 22.9475C19.0862 22.9216 19.0993 22.8958 19.1124 22.8829C19.1254 22.8699 19.1385 22.8441 19.1385 22.8053C19.1385 22.7794 19.1515 22.7277 19.1776 22.7148C19.2037 22.6889 19.2168 22.6372 19.2168 22.6114C19.2168 22.5726 19.2298 22.5467 19.2429 22.5467C19.256 22.5467 19.269 22.5209 19.269 22.495C19.269 22.4692 19.2821 22.4174 19.2951 22.3787C19.3082 22.3528 19.3343 22.3011 19.3473 22.2752C19.3604 22.2494 19.3735 22.1977 19.3735 22.1589C19.3735 22.1201 19.3865 22.1072 19.3996 22.1201C19.4126 22.133 19.4257 22.1072 19.4257 22.0555C19.4257 22.0038 19.4387 21.965 19.4518 21.952C19.4648 21.9391 19.4779 21.9003 19.4779 21.8615C19.4779 21.8228 19.4909 21.7969 19.504 21.7969C19.5171 21.7969 19.5301 21.7581 19.5301 21.7193C19.5301 21.6676 19.5432 21.6418 19.5562 21.6418C19.5693 21.6418 19.5823 21.6159 19.5823 21.5901C19.5823 21.5642 19.5954 21.5254 19.6215 21.5125C19.6476 21.4996 19.6607 21.4608 19.6607 21.422C19.6607 21.3832 19.6737 21.3444 19.6868 21.3444C19.6998 21.3444 19.7129 21.3186 19.7129 21.2927C19.7129 21.2669 19.7259 21.2151 19.752 21.1893C19.7782 21.1634 19.7912 21.1246 19.7912 21.0988C19.7912 21.0729 19.8043 21.0341 19.8173 21.0341C19.8304 21.0212 19.8434 20.9824 19.8434 20.9566C19.8434 20.9178 19.8565 20.879 19.8826 20.8532C19.9087 20.8402 19.9218 20.8014 19.9218 20.7885C19.9218 20.7627 19.9479 20.6722 20.0131 20.5558C20.0262 20.53 20.0523 20.4524 20.0654 20.3877C20.0915 20.3102 20.1176 20.2585 20.1306 20.2714C20.1437 20.2843 20.1567 20.2455 20.1567 20.1809C20.1567 20.1292 20.1698 20.0775 20.1829 20.0775C20.1959 20.0775 20.209 20.0387 20.209 19.9999C20.209 19.9611 20.222 19.9094 20.2351 19.8965C20.2481 19.8835 20.2612 19.8577 20.2612 19.8318C20.2612 19.806 20.2742 19.7801 20.3004 19.7801C20.3265 19.7801 20.3395 19.7672 20.3265 19.7543C20.3004 19.7155 20.3395 19.5862 20.3656 19.5991C20.3787 19.6121 20.3917 19.5862 20.3917 19.5603C20.3917 19.444 20.4178 19.444 16.1097 19.444C11.9582 19.4569 11.9321 19.4569 11.893 19.5086Z" fill="url(#paint1_linear_16_463)"/>
</g>
<g clip-path="url(#clip1_16_463)">
<path fill-rule="evenodd" clip-rule="evenodd" d="M82.4504 0.131945C80.8404 0.420519 79.3365 1.1382 78.0949 2.21045C76.8533 3.28269 75.9193 4.67037 75.3898 6.22934C75.2757 6.56237 75.1375 6.92567 75.0834 7.04072C73.8816 9.62621 73.8816 16.8075 75.0834 19.3506C75.1375 19.4596 75.2757 19.7986 75.3898 20.1074C77.6252 26.005 84.7097 28.0395 90.1238 24.346C90.7276 23.9452 91.2965 23.4935 91.8243 22.9957L92.5094 22.3902V12.8414H84.0968V15.8689H89.9075V20.5252L89.4328 20.9673C86.4283 23.7405 81.9456 23.8192 79.3678 21.1368C76.0929 17.7339 76.171 8.27594 79.506 4.86091C80.7799 3.55303 81.9516 3.09285 84.0487 3.0989C87.1614 3.0989 88.7898 4.52183 89.6972 8.04585L89.8053 8.45153L91.0071 8.05796C92.0527 7.71888 92.2089 7.64017 92.2089 7.45246C92.1666 7.00028 92.0697 6.55498 91.9205 6.12641C91.8724 6.01137 91.7102 5.55724 91.5599 5.11522C90.3582 1.48222 86.6687 -0.540163 82.4444 0.125888M103.992 0.125888C99.2274 0.882765 96.2229 5.10311 95.7001 11.806C95.1653 18.63 97.9655 24.1764 102.731 25.7326C105.819 26.7437 110.182 25.8658 112.411 23.7889C112.471 23.7283 112.868 23.3893 113.288 23.0381L114.052 22.3902V12.8414H105.639V15.8689H111.444V20.5252L110.951 20.9794C110.511 21.3977 110.016 21.7523 109.479 22.0329C109.357 22.0826 109.244 22.1499 109.142 22.2328C107.94 23.1107 105.411 23.3893 103.704 22.8383C100.327 21.7484 98.6926 18.8904 98.5544 13.8344C98.3681 7.07099 100.748 3.24422 105.242 3.08074C108.247 2.97175 109.965 4.1888 110.945 7.17393L111.366 8.46365L112.567 8.05796L113.769 7.65227L113.715 7.24053C113.054 2.39652 108.908 -0.630987 103.999 0.131945M47.1477 13.1018V25.7628H51.4862C56.4496 25.7628 57.2368 25.672 58.8171 24.8788C60.9683 23.801 62.759 20.5737 63.3899 16.6319C63.7084 14.6579 63.5101 9.23869 63.0715 7.85209C63.0174 7.68255 62.8792 7.21026 62.765 6.79246C61.9117 3.76495 59.8446 1.43983 57.417 0.785888C56.5878 0.567907 54.0039 0.440751 50.2784 0.434696H47.1477V13.1018ZM67.5782 13.1502V25.8658H70.2822V0.434696H67.5782V13.1502ZM118.282 13.1502V25.8658H119.658H121.034V0.434696H118.234V13.1502M125.318 13.1078V25.787H129.909C135.131 25.787 136.146 25.6659 137.336 24.9091C141.386 22.3357 141.41 14.6155 137.372 12.6234L136.771 12.3207L137.234 11.9574C137.498 11.7408 137.744 11.5017 137.967 11.2429C138.117 11.0552 138.286 10.8433 138.346 10.7767C139.818 8.96016 139.728 4.97596 138.153 2.77799C136.795 0.773778 135.882 0.543686 129.873 0.458916L125.39 0.404419V13.0776M141.891 0.483137C141.891 0.483137 142.63 1.93634 143.531 3.6378C145.19 6.78035 145.887 8.1064 146.872 10.0137C147.173 10.6192 147.888 11.9634 148.459 13.0412L149.504 15.0152V25.7507H152.305V15.0091L152.905 13.9495C153.224 13.344 153.596 12.684 153.741 12.4357C153.885 12.1875 154.209 11.5759 154.474 11.0734C154.738 10.5708 155.279 9.57777 155.676 8.85722L157.628 5.27265C158.301 4.02532 159.071 2.60239 159.341 2.11799C159.521 1.81281 159.684 1.49743 159.828 1.17341C159.879 1.05808 159.948 0.951757 160.032 0.858545C160.357 0.440749 160.302 0.428639 158.65 0.428639H157.064L156.246 1.97873C155.79 2.83248 155.423 3.55303 155.423 3.5833C155.423 3.61358 154.942 4.53999 154.36 5.64201C153.777 6.74402 152.845 8.57264 152.299 9.71098L151.175 12.0482L151.061 12.2844L150.965 12.0482C150.526 10.9523 146.704 3.24422 146.398 2.83248C146.356 2.77193 146.067 2.22698 145.755 1.62148L145.184 0.489193H143.537C142.988 0.471046 142.438 0.489248 141.891 0.543686M160.921 2.00295V3.5167H167.429V25.8173H170.133V3.45615H176.743V0.428639H160.921V1.94239M179.345 13.0897V25.7568H194.271V22.7293H182.151V14.2522H193.069V11.1279H182.151V3.45615H193.875L193.845 1.96661V0.47708H186.604H179.393V13.1381M55.7766 3.5833C59.1536 4.04954 60.8301 7.30714 60.722 13.1926C60.6198 18.7996 59.2678 21.6696 56.3474 22.4326C55.1773 22.5986 53.9954 22.6655 52.8142 22.6324L49.8097 22.6748V3.42587L52.3875 3.48642C53.8116 3.52275 55.3199 3.60147 55.7525 3.65596M133.929 3.65596C135.864 3.9466 136.693 5.06678 136.687 7.38586C136.687 9.10548 136.201 10.0198 134.993 10.6435L134.392 10.9583L131.261 10.9946L128.136 11.031V3.42587L130.66 3.48642C132.054 3.52275 133.527 3.60147 133.935 3.66202M133.166 14.1554C135.041 14.3188 135.744 14.5732 136.423 15.2998C137.907 16.8983 137.841 20.3436 136.297 21.7483C135.329 22.6324 134.794 22.7293 131.009 22.7293H128.076V14.0524H130.053C131.141 14.0524 132.541 14.1009 133.166 14.1554Z" fill="#4D4B4B"/>
</g>
<line x1="47.0342" y1="28.8554" x2="194.855" y2="28.8554" stroke="url(#paint2_linear_16_463)" stroke-width="0.859421"/>
<path d="M47.7148 38.3388C47.7148 36.1834 49.3856 34.6055 51.4585 34.6055C52.5723 34.6055 53.5314 35.0592 54.2121 35.8224L53.6552 36.3277C53.1292 35.7193 52.366 35.3583 51.4585 35.3583C49.7775 35.3583 48.5399 36.6371 48.5399 38.3388C48.5399 40.0404 49.7775 41.3193 51.4585 41.3193C52.366 41.3193 53.1601 40.948 53.6861 40.3086L54.243 40.8139C53.5623 41.608 52.5723 42.0721 51.4585 42.0721C49.3856 42.0721 47.7148 40.4942 47.7148 38.3388ZM55.9137 41.9277V34.7395H58.3785C59.5645 34.7395 60.534 35.6471 60.534 36.8846C60.534 37.8438 59.9771 38.6172 59.1726 38.9266L60.9052 41.9277H59.9668L58.3476 39.0916H58.3373H56.7285V41.9277H55.9137ZM56.7285 38.3388H58.296C59.1108 38.3388 59.7192 37.72 59.7192 36.8846C59.7192 36.1009 59.1314 35.4924 58.3476 35.4924H56.7285V38.3388ZM62.5092 39.9167V34.7395H66.5829V35.4924H63.324V37.7613H66.387V38.5141H63.324V39.9579C63.324 40.9171 64.0253 41.1749 64.4894 41.1749H66.6551V41.9277H64.4172C63.128 41.9277 62.5092 41.2058 62.5092 39.9167ZM67.9352 41.9277L71.1941 34.4817L74.4634 41.9277H73.5661L72.803 40.1642H69.5647L68.7912 41.9277H67.9352ZM69.8947 39.4113H72.4729L71.1838 36.3793L69.8947 39.4113ZM76.601 41.9277V35.4924H74.6415V34.7395H79.3752V35.4924H77.4157V41.9277H76.601ZM81.0628 41.9277V34.7395H81.8776V41.9277H81.0628ZM84.2041 41.9277V34.4817L89.2472 40.1436V34.7395H90.0619V42.1856L85.0189 36.5237V41.9277H84.2041ZM91.8878 38.3388C91.8878 36.1834 93.5585 34.6055 95.6314 34.6055C96.6111 34.6055 97.4671 34.9355 98.1272 35.544L97.6115 36.1112C97.0959 35.6368 96.4152 35.3583 95.6314 35.3583C93.9504 35.3583 92.7128 36.6474 92.7128 38.3388C92.7128 40.0404 93.9504 41.3193 95.6314 41.3193C96.4049 41.3193 97.0855 41.0511 97.6012 40.5973V38.7616H95.4045V37.9985H98.4159V40.8758C97.7249 41.6287 96.7452 42.0721 95.6314 42.0721C93.5585 42.0721 91.8878 40.4942 91.8878 38.3388ZM105.383 42.1856L102.278 34.7395H103.155L105.383 40.1229L107.61 34.7395H108.487L105.383 42.1856ZM108.503 41.9277L111.762 34.4817L115.031 41.9277H114.134L113.37 40.1642H110.132L109.359 41.9277H108.503ZM110.462 39.4113H113.04L111.751 36.3793L110.462 39.4113ZM116.724 41.9277V34.7395H117.539V41.1749H120.499V41.9277H116.724ZM121.93 39.401V34.7395H122.745V39.3185C122.745 40.6386 123.487 41.2986 124.632 41.2986C125.767 41.2986 126.509 40.6386 126.509 39.3185V34.7395H127.324V39.401C127.324 41.1543 126.179 42.0515 124.632 42.0515C123.075 42.0515 121.93 41.1543 121.93 39.401ZM129.514 39.9167V34.7395H133.588V35.4924H130.329V37.7613H133.392V38.5141H130.329V39.9579C130.329 40.9171 131.03 41.1749 131.494 41.1749H133.66V41.9277H131.422C130.133 41.9277 129.514 41.2058 129.514 39.9167ZM139.898 42.1856L137.536 34.7395H138.403L140.001 39.7929L142.177 34.492L144.25 39.7723L145.89 34.7395H146.746L144.343 42.2062L142.157 36.6887L139.898 42.1856ZM148.42 41.9277V34.7395H149.235V41.9277H148.42ZM152.881 41.9277V35.4924H150.922V34.7395H155.656V35.4924H153.696V41.9277H152.881ZM157.302 41.9277V34.7395H158.117V37.7303H162.098V34.7395H162.912V41.9277H162.098V38.4935H158.117V41.9277H157.302ZM168.29 41.9277V34.7395H170.61C172.941 34.7395 174.323 36.2143 174.323 38.3388C174.323 40.4633 172.951 41.9277 170.621 41.9277H168.29ZM169.105 41.1749H170.559C172.549 41.1749 173.498 39.9992 173.498 38.3388C173.498 36.6681 172.549 35.4924 170.548 35.4924H169.105V41.1749ZM175.276 41.9277L178.535 34.4817L181.804 41.9277H180.907L180.143 40.1642H176.905L176.132 41.9277H175.276ZM177.235 39.4113H179.813L178.524 36.3793L177.235 39.4113ZM183.941 41.9277V35.4924H181.982V34.7395H186.716V35.4924H184.756V41.9277H183.941ZM186.898 41.9277L190.157 34.4817L193.426 41.9277H192.529L191.766 40.1642H188.527L187.754 41.9277H186.898ZM188.857 39.4113H191.436L190.147 36.3793L188.857 39.4113Z" fill="#4D4B4B"/>
<defs>
<linearGradient id="paint0_linear_16_463" x1="19.4813" y1="0.116211" x2="19.4813" y2="30.1804" gradientUnits="userSpaceOnUse">
<stop stop-color="#FF8A00"/>
<stop offset="1" stop-color="#F69728"/>
</linearGradient>
<linearGradient id="paint1_linear_16_463" x1="9.90992" y1="6.60685" x2="19.8199" y2="23.7841" gradientUnits="userSpaceOnUse">
<stop stop-color="#676767"/>
<stop offset="1" stop-color="#3D3A3A"/>
<stop offset="1" stop-color="#3A3737"/>
</linearGradient>
<linearGradient id="paint2_linear_16_463" x1="120.944" y1="29.2852" x2="120.944" y2="30.2852" gradientUnits="userSpaceOnUse">
<stop stop-color="#FF8A00"/>
<stop offset="1" stop-color="#F69728"/>
</linearGradient>
<clipPath id="clip0_16_463">
<rect width="39.0344" height="30.2516" fill="white"/>
</clipPath>
<clipPath id="clip1_16_463">
<rect width="147.821" height="26.6421" fill="white" transform="translate(47.0344)"/>
</clipPath>
</defs>
</svg>
