<svg width="43" height="33" viewBox="0 0 43 33" fill="none" xmlns="http://www.w3.org/2000/svg">
<g clip-path="url(#clip0_16_451)">
<path fill-rule="evenodd" clip-rule="evenodd" d="M21.6029 0.125977C20.3172 0.139968 19.2716 0.153959 19.2575 0.153959C19.201 0.223916 19.088 0.433787 19.088 0.475762C19.088 0.503745 19.0738 0.545719 19.0597 0.55971C19.0456 0.573701 19.0315 0.601684 19.0315 0.629667C19.0315 0.65765 19.0173 0.685633 19.0032 0.685633C18.9891 0.685633 18.9749 0.713616 18.9749 0.741599C18.9749 0.769581 18.9608 0.811556 18.9467 0.811556C18.9326 0.825547 18.9184 0.85353 18.9184 0.881513C18.9184 0.909496 18.9043 0.937478 18.8902 0.937478C18.876 0.937478 18.8619 0.965461 18.8619 0.993443C18.8619 1.02143 18.8478 1.0634 18.8336 1.0634C18.8195 1.07739 18.8054 1.10537 18.8054 1.13336C18.8054 1.16134 18.7913 1.18932 18.7771 1.18932C18.7489 1.18932 18.65 1.35722 18.65 1.41319C18.65 1.44117 18.6358 1.45516 18.6217 1.45516C18.6076 1.45516 18.5935 1.48314 18.5935 1.51113C18.5935 1.53911 18.5511 1.63705 18.5087 1.721C18.4663 1.80495 18.438 1.8749 18.4522 1.8749C18.4663 1.8749 18.4522 1.90289 18.4239 1.93087C18.3533 2.01482 18.3109 2.11276 18.3109 2.16872C18.3109 2.1967 18.2968 2.2107 18.2826 2.2107C18.2685 2.2107 18.2544 2.23868 18.2544 2.28065C18.2544 2.46254 18.5369 2.44855 14.5244 2.44855C10.5966 2.44855 10.7802 2.44855 10.7802 2.57447C10.7802 2.61645 10.7661 2.65842 10.752 2.65842C10.7379 2.65842 10.7237 2.70039 10.7237 2.75636C10.7237 2.81233 10.6955 2.86829 10.6814 2.88228C10.6531 2.89628 10.639 2.96623 10.6248 3.03619C10.5825 3.30203 10.5683 3.38597 10.5401 3.39997C10.5259 3.41396 10.5118 3.45593 10.5118 3.5119C10.5118 3.56786 10.4977 3.62383 10.4835 3.63782C10.4694 3.65181 10.4553 3.69379 10.4553 3.72177C10.4553 3.76374 10.4412 3.80572 10.427 3.80572C10.4129 3.81971 10.3988 3.84769 10.3988 3.87567C10.3988 3.90366 10.3846 3.97361 10.3705 4.01559C10.3564 4.05756 10.3281 4.11353 10.3281 4.14151C10.3281 4.16949 10.314 4.23945 10.2999 4.30941C10.2857 4.37936 10.2716 4.43533 10.2716 4.44932C10.2716 4.46331 10.2575 4.4773 10.2434 4.4913C10.1162 4.61722 9.94665 4.61722 14.3831 4.63121C16.6719 4.6452 18.5652 4.65919 18.6076 4.67318C18.7065 4.71516 24.5417 4.70117 24.6123 4.67318C24.7112 4.61722 28.752 4.60323 28.8933 4.6452C28.964 4.67318 29.0487 4.68717 29.077 4.67318C29.1053 4.65919 29.19 4.67318 29.2466 4.68717C29.3596 4.71516 29.5009 4.74314 29.7693 4.79911C29.8258 4.8131 29.8682 4.82709 29.8823 4.84108C29.8965 4.85507 29.9247 4.86906 29.9671 4.86906C30.0095 4.86906 30.0519 4.88305 30.066 4.89705C30.0943 4.92503 30.2921 4.99499 30.3769 5.00898C30.4051 5.00898 30.4334 5.03696 30.4334 5.05095C30.4334 5.06494 30.4758 5.07893 30.5181 5.07893C30.5605 5.07893 30.5888 5.09293 30.5888 5.10692C30.5888 5.12091 30.617 5.1349 30.6453 5.1349C30.6736 5.1349 30.7018 5.14889 30.7018 5.16288C30.7018 5.19086 30.7866 5.23284 30.8855 5.27481C30.9137 5.28881 30.942 5.3028 30.942 5.31679C30.942 5.33078 30.9561 5.34477 30.9844 5.34477C31.0126 5.34477 31.0692 5.38675 31.2387 5.52666C31.2528 5.54065 31.2952 5.55464 31.3094 5.55464C31.3235 5.55464 31.3517 5.58263 31.38 5.61061C31.3941 5.63859 31.4365 5.66657 31.4506 5.66657C31.4648 5.66657 31.493 5.68056 31.493 5.69456C31.493 5.70855 31.5072 5.72254 31.5213 5.72254C31.5778 5.72254 32.0582 6.22623 32.1288 6.35215C32.1571 6.40812 32.2136 6.47808 32.2419 6.50606C32.2701 6.53404 32.2984 6.57601 32.2984 6.604C32.2984 6.63198 32.3125 6.65996 32.3266 6.65996C32.3408 6.65996 32.369 6.70194 32.3973 6.74391C32.4397 6.82786 32.4679 6.86984 32.5386 6.93979C32.5527 6.96777 32.5809 6.99576 32.5809 7.02374C32.5809 7.05172 32.5951 7.06571 32.6092 7.06571C32.6233 7.06571 32.6375 7.0937 32.6375 7.12168C32.6375 7.14966 32.6516 7.17765 32.6657 7.17765C32.6798 7.17765 32.694 7.20563 32.694 7.23361C32.694 7.30357 32.7646 7.44348 32.7929 7.44348C32.807 7.44348 32.8353 7.49945 32.8494 7.5834C32.8776 7.65335 32.9059 7.72331 32.92 7.72331C32.9342 7.72331 32.9483 7.76528 32.9483 7.80726C32.9483 7.84923 32.9624 7.9052 32.9907 7.93318C33.0189 7.94717 33.0331 7.98915 33.0189 8.01713C33.0048 8.04511 33.0189 8.08709 33.0472 8.10108C33.0755 8.12906 33.0896 8.18503 33.0896 8.21301C33.0896 8.25498 33.1037 8.29696 33.1178 8.29696C33.132 8.31095 33.1461 8.36692 33.1461 8.40889C33.1461 8.45086 33.1602 8.50683 33.1744 8.52082C33.1885 8.52082 33.2026 8.59078 33.2167 8.66073C33.2167 8.73069 33.2309 8.80065 33.245 8.80065C33.2591 8.81464 33.2733 8.84262 33.2733 8.8846C33.2733 8.92657 33.2874 8.98254 33.3015 9.02451C33.4004 9.22039 33.5276 11.1232 33.4428 11.459C33.4287 11.515 33.4145 11.6549 33.4004 11.7528C33.358 12.1306 33.3439 12.2006 33.3156 12.2285C33.3015 12.2425 33.2733 12.3125 33.2733 12.3824C33.2733 12.4524 33.245 12.5084 33.2309 12.5084C33.2167 12.5084 33.2026 12.5643 33.2026 12.6343C33.2026 12.7043 33.1885 12.7462 33.1744 12.7462C33.1602 12.7462 33.1461 12.7742 33.1461 12.8022C33.1461 12.8582 33.0896 13.04 33.0472 13.11C33.0331 13.138 33.0189 13.18 33.0048 13.194C33.0048 13.2219 32.9907 13.2499 32.9624 13.2499C32.9483 13.2499 32.9342 13.2779 32.9342 13.3059C32.9342 13.3339 32.92 13.3758 32.9059 13.3898C32.8918 13.4038 32.8635 13.4738 32.8494 13.5297C32.8353 13.5857 32.807 13.6417 32.7929 13.6417C32.7787 13.6417 32.7505 13.6836 32.7364 13.7396C32.6657 13.9075 32.6375 13.9775 32.6092 13.9775C32.5951 13.9775 32.5809 14.0055 32.5809 14.0334C32.5809 14.0614 32.5668 14.0894 32.5386 14.0894C32.5103 14.0894 32.4962 14.1034 32.5103 14.1174C32.5244 14.1314 32.5103 14.1594 32.482 14.1873C32.4538 14.2013 32.4397 14.2433 32.4397 14.2713C32.4397 14.2993 32.4255 14.3133 32.4114 14.3133C32.3973 14.3133 32.3831 14.3273 32.3831 14.3552C32.3831 14.3692 32.3549 14.4252 32.3125 14.4532C32.2701 14.4812 32.2419 14.5231 32.2419 14.5371C32.2419 14.5931 31.7615 15.1248 31.705 15.1248C31.6767 15.1248 31.6767 15.1388 31.6908 15.1527C31.705 15.1667 31.6908 15.1807 31.6626 15.1807C31.6343 15.1807 31.6202 15.1947 31.6202 15.2087C31.6202 15.2227 31.5637 15.2787 31.5072 15.3346C31.4506 15.3906 31.3517 15.4745 31.3094 15.5165C31.267 15.5585 31.2105 15.6005 31.1963 15.6005C31.1822 15.6005 31.1681 15.6145 31.1681 15.6285C31.1681 15.6424 31.1539 15.6564 31.1398 15.6564C31.1257 15.6564 31.0833 15.6844 31.0409 15.7124C30.9985 15.7404 30.9137 15.8103 30.829 15.8523C30.7442 15.8943 30.6877 15.9363 30.6877 15.9503C30.6877 15.9642 30.6736 15.9782 30.6453 15.9782C30.4616 15.9782 30.6594 16.328 30.942 16.4959C31.055 16.5659 31.1681 16.6218 31.1681 16.6358C31.1822 16.6498 31.2952 16.7198 31.4224 16.8177C31.5495 16.9017 31.6767 16.9856 31.6767 16.9996C31.6908 17.0136 31.7332 17.0556 31.7897 17.0836C31.9028 17.1675 32.1288 17.3774 32.4255 17.6992C32.6657 17.951 32.7646 18.077 32.92 18.3428C32.9342 18.3708 33.0189 18.4967 33.0896 18.6226C33.1744 18.7485 33.2309 18.8605 33.2309 18.8605C33.2309 18.8745 33.2733 18.9584 33.3298 19.0563C33.683 19.7699 33.8667 20.6933 33.8667 21.8406C33.8667 22.4842 33.8384 22.862 33.7678 23.1838C33.7536 23.2118 33.7536 23.2818 33.7395 23.3237C33.7254 23.3657 33.7112 23.4357 33.7112 23.4776C33.6971 23.5196 33.683 23.5896 33.683 23.6315C33.6689 23.6735 33.6547 23.7155 33.6547 23.7295C33.6406 23.7435 33.6265 23.7854 33.6265 23.8414C33.6123 23.8834 33.5982 23.9394 33.5841 23.9533C33.57 23.9673 33.5417 24.0653 33.5134 24.1632C33.4287 24.457 32.9765 25.3105 32.8353 25.4364C32.8211 25.4504 32.7787 25.5064 32.7222 25.5903C32.5809 25.7862 31.8039 26.5977 31.5213 26.8356C31.4365 26.9055 31.3517 26.9755 31.3376 26.9895C31.3235 27.0035 31.2811 27.0315 31.267 27.0315C31.2528 27.0315 31.2387 27.0454 31.2528 27.0594C31.267 27.0734 31.2387 27.1014 31.2105 27.1014C31.1822 27.1154 31.1539 27.1294 31.1539 27.1434C31.1539 27.1574 31.1257 27.1714 31.0974 27.1714C31.0692 27.1714 31.0409 27.1854 31.0409 27.1993C31.0409 27.2133 30.9561 27.2693 30.8431 27.3253C30.7301 27.3812 30.5888 27.4652 30.5323 27.4932C30.4758 27.5212 30.391 27.5631 30.3627 27.5631C30.3345 27.5631 30.2921 27.5771 30.278 27.5911C30.2638 27.6051 30.2073 27.6191 30.1649 27.6331C30.1225 27.6331 30.0801 27.6611 30.066 27.6751C30.0519 27.689 30.0095 27.717 29.953 27.717C29.8965 27.717 29.8682 27.731 29.8682 27.745C29.8682 27.759 29.8117 27.773 29.7552 27.773C29.6987 27.773 29.628 27.787 29.6139 27.801C29.5998 27.815 29.5009 27.829 29.4161 27.843C29.3031 27.843 29.2466 27.8569 29.2324 27.8849C29.2183 27.9129 29.1477 27.9269 28.9922 27.9269C28.8651 27.9269 28.752 27.9409 28.752 27.9549C28.7379 27.9829 28.2434 27.9829 26.9436 27.9689C23.1994 27.9129 10.0879 27.9409 9.62169 28.0109C9.56518 28.0248 9.39563 28.0388 9.25434 28.0388C8.9859 28.0528 8.887 28.0948 8.887 28.2067C8.887 28.2347 8.87287 28.2907 8.85874 28.3187C8.84461 28.3466 8.81635 28.4026 8.80222 28.4306C8.78809 28.4586 8.77397 28.5145 8.77397 28.5285C8.77397 28.5565 8.74571 28.5845 8.73158 28.5845C8.70332 28.5985 8.68919 28.6265 8.70332 28.6684C8.71745 28.6964 8.70332 28.7244 8.68919 28.7244C8.66094 28.7244 8.56204 28.8923 8.56204 28.9483C8.56204 28.9623 8.51965 29.0742 8.46313 29.1861C8.40662 29.2981 8.36423 29.41 8.36423 29.438C8.36423 29.452 8.3501 29.4799 8.33597 29.4799C8.32185 29.4799 8.30772 29.4939 8.30772 29.5219C8.30772 29.5639 8.26533 29.6478 8.1523 29.8717C8.13817 29.8997 8.12404 29.9417 8.12404 29.9697C8.12404 29.9976 8.10991 30.0116 8.09578 29.9976C8.08165 29.9836 8.06753 30.0116 8.06753 30.0536C8.06753 30.0956 8.0534 30.1236 8.03927 30.1236C8.02514 30.1236 8.01101 30.1375 8.02514 30.1515C8.03927 30.1655 8.02514 30.2075 8.01101 30.2355L7.98276 30.3054H4.26689C0.0847721 30.3054 0.46625 30.2775 0.437993 30.5293C0.437993 30.5993 0.409735 30.6552 0.395606 30.6692C0.381477 30.6832 0.367349 30.7392 0.367349 30.7951C0.367349 30.8511 0.353218 30.9071 0.33909 30.9351C0.324961 30.949 0.310834 31.019 0.296705 31.089C0.282576 31.1589 0.268447 31.2149 0.254318 31.2289C0.24019 31.2429 0.24019 31.2848 0.226061 31.3268C0.226061 31.3688 0.197802 31.4947 0.169545 31.5926C0.141287 31.7046 0.11303 31.8305 0.098901 31.8865C0.0847722 31.9424 0.070643 32.0124 0.0565142 32.0264C0.0423854 32.0404 0.0282584 32.1523 0.0141296 32.2782L0 32.4881H0.0847735C0.12716 32.4881 0.169546 32.5021 0.183674 32.5161C0.197803 32.5301 0.24019 32.5441 0.296705 32.5441C0.339091 32.5441 0.423864 32.572 0.46625 32.6C0.593409 32.684 30.1791 32.684 30.3062 32.6C30.3627 32.572 30.4475 32.5441 30.5464 32.5441C30.6312 32.5441 30.7159 32.5301 30.7301 32.5161C30.7442 32.5021 30.8148 32.4881 30.9137 32.4881C31.0126 32.4881 31.0833 32.4741 31.0974 32.4601C31.1116 32.4461 31.1822 32.4321 31.267 32.4321C31.3517 32.4321 31.4083 32.4181 31.3941 32.4042C31.38 32.3762 31.4506 32.3482 31.5637 32.3482C31.6061 32.3482 31.6626 32.3342 31.6626 32.3202C31.6767 32.3062 31.7191 32.2922 31.7615 32.2922C31.8321 32.2922 31.9593 32.2642 32.1147 32.2083C32.1429 32.1943 32.2419 32.1663 32.3125 32.1523C32.3831 32.1383 32.4962 32.0963 32.5527 32.0684C32.7505 31.9844 32.807 31.9564 32.8635 31.9424C32.8918 31.9284 32.9483 31.9145 32.9907 31.9145C33.0331 31.9145 33.0613 31.9005 33.0613 31.8865C33.0613 31.8725 33.0896 31.8585 33.132 31.8585C33.1744 31.8585 33.2167 31.8445 33.2167 31.8165C33.2309 31.7885 33.2591 31.7745 33.3015 31.7745C33.3439 31.7745 33.358 31.7605 33.358 31.7466C33.358 31.7326 33.3863 31.7186 33.4287 31.7186C33.4711 31.7186 33.4993 31.7046 33.4993 31.6906C33.4993 31.6766 33.5276 31.6626 33.5558 31.6626C33.5841 31.6626 33.6265 31.6486 33.6265 31.6346C33.6406 31.6206 33.6971 31.5787 33.7536 31.5507C33.8101 31.5227 33.8949 31.4807 33.9373 31.4667C33.9797 31.4527 34.0503 31.4108 34.0927 31.3828C34.1351 31.3548 34.1916 31.3268 34.2199 31.3268C34.2481 31.3268 34.2905 31.2988 34.347 31.2569C34.3894 31.2149 34.4459 31.1869 34.4742 31.1869C34.5025 31.1869 34.5166 31.1729 34.5166 31.1589C34.5166 31.1449 34.5307 31.1309 34.559 31.1309C34.5872 31.1309 34.6155 31.1169 34.6437 31.089C34.6579 31.061 34.6861 31.047 34.7003 31.061C34.7003 31.061 34.7426 31.047 34.785 31.005C34.8274 30.963 34.8698 30.9351 34.8981 30.9351C34.9546 30.9351 35.8588 30.2915 35.9577 30.1795C35.986 30.1515 36.0142 30.1236 36.0284 30.1236C36.0425 30.1236 36.1273 30.0536 36.212 29.9836C36.4098 29.8017 36.4946 29.7318 36.5229 29.7318C36.537 29.7318 36.5511 29.7178 36.5511 29.7038C36.5511 29.6758 36.8478 29.368 36.8761 29.368C36.8902 29.368 36.9609 29.2981 37.0315 29.2281C37.4695 28.7804 37.7945 28.4446 37.9075 28.3047C37.9781 28.2207 38.1053 28.0808 38.1759 28.0109C38.2466 27.9409 38.3031 27.8709 38.3031 27.8569C38.3031 27.843 38.3596 27.773 38.4444 27.689C38.515 27.6191 38.5857 27.5351 38.5857 27.5072C38.5857 27.4792 38.5998 27.4512 38.6281 27.4512C38.6563 27.4372 38.6704 27.4232 38.6563 27.4092C38.6422 27.3952 38.6563 27.3812 38.6846 27.3812C38.7128 27.3812 38.727 27.3672 38.7128 27.3533C38.6987 27.3393 38.727 27.2973 38.7693 27.2553C38.8117 27.2133 38.84 27.1714 38.84 27.1574C38.84 27.1434 38.8682 27.1014 38.8965 27.0874C38.9671 27.0315 39.1791 26.7097 39.1791 26.6677C39.1791 26.6537 39.1932 26.6397 39.2073 26.6537C39.2215 26.6677 39.2356 26.6537 39.2356 26.6257C39.2356 26.5977 39.2639 26.5557 39.2921 26.5138C39.3204 26.4718 39.3486 26.4298 39.3486 26.4158C39.3486 26.3878 39.3769 26.3599 39.4051 26.3319C39.4334 26.3039 39.4899 26.2339 39.5182 26.164C39.5464 26.094 39.5888 26.0381 39.6029 26.0381C39.6171 26.0381 39.6312 26.0241 39.6312 26.0101C39.6312 25.9961 39.6453 25.9681 39.6595 25.9401C39.716 25.8702 39.829 25.6883 39.8996 25.5624C39.942 25.4924 39.9985 25.3945 40.0268 25.3385C40.0551 25.2825 40.0833 25.2266 40.0833 25.2126C40.0833 25.1846 40.0975 25.1566 40.1257 25.1286C40.2105 25.0307 40.2387 24.9887 40.2387 24.9747C40.2246 24.9467 40.3094 24.7788 40.3376 24.7788C40.3518 24.7788 40.3659 24.7648 40.3659 24.7509C40.3659 24.7369 40.3942 24.6669 40.4224 24.5969C40.4507 24.527 40.4789 24.457 40.4789 24.4291C40.4789 24.4011 40.4931 24.3871 40.5072 24.3871C40.5213 24.3871 40.5354 24.3731 40.5354 24.3591C40.5354 24.3451 40.5496 24.2891 40.5778 24.2332C40.6061 24.1772 40.6343 24.0933 40.6626 24.0373C40.6767 23.9813 40.705 23.9394 40.7332 23.9394C40.7474 23.9394 40.7615 23.9114 40.7615 23.8694C40.7615 23.8274 40.7756 23.7994 40.7898 23.7994C40.8039 23.7994 40.818 23.7715 40.818 23.7295C40.818 23.6875 40.8321 23.6595 40.8463 23.6735C40.8604 23.6875 40.8745 23.6455 40.8745 23.5896C40.8745 23.5336 40.8887 23.4776 40.9028 23.4776C40.9169 23.4636 40.9876 23.2957 41.0723 23.0719C41.0865 23.0159 41.1147 22.9739 41.1288 22.9739C41.143 22.9739 41.1571 22.932 41.1571 22.89C41.1571 22.834 41.1712 22.806 41.1854 22.806C41.1995 22.806 41.2136 22.7641 41.2136 22.7221C41.2136 22.6801 41.2277 22.6242 41.2419 22.6102C41.256 22.5962 41.2701 22.5542 41.2843 22.5122C41.2843 22.4703 41.3125 22.4143 41.3267 22.3863C41.3408 22.3583 41.3549 22.3303 41.3549 22.3163C41.3549 22.3024 41.3832 22.2324 41.3973 22.1484C41.4114 22.0785 41.4397 21.9806 41.4538 21.9386C41.4679 21.8966 41.4679 21.8266 41.4821 21.7987C41.4962 21.7567 41.5103 21.7427 41.5245 21.7567C41.5527 21.7707 41.5527 21.7427 41.5386 21.6727C41.5245 21.6028 41.5386 21.5608 41.5668 21.5468C41.5951 21.5328 41.6092 21.4769 41.6092 21.3929C41.6092 21.309 41.6234 21.267 41.6375 21.281C41.6516 21.295 41.6657 21.253 41.6657 21.1691C41.6657 21.0991 41.6799 21.0291 41.694 21.0291C41.7081 21.0291 41.7223 20.9732 41.7223 20.9032C41.7223 20.8333 41.7505 20.7633 41.7646 20.7493C41.7788 20.7353 41.807 20.6514 41.807 20.5674C41.807 20.4835 41.8353 20.3855 41.8494 20.3436C41.8635 20.3016 41.8777 20.2176 41.8777 20.1477C41.8777 20.0777 41.8918 20.0078 41.9059 19.9938C41.9342 19.9658 41.9483 19.8818 41.9907 19.3782C42.0048 19.2662 42.019 19.1683 42.0331 19.1543C42.0472 19.1403 42.0613 19.0144 42.0613 18.8745C42.0613 18.7345 42.0755 18.6226 42.0896 18.6226C42.1037 18.6226 42.1179 18.5527 42.1179 18.4827C42.1179 18.3988 42.132 18.2029 42.1461 18.035C42.1744 17.6012 42.1744 15.4466 42.1461 14.9709C42.132 14.747 42.1179 14.5371 42.1179 14.4952C42.1179 14.4532 42.1037 14.4252 42.0896 14.4252C42.0755 14.4252 42.0613 14.3133 42.0613 14.1454C42.0613 13.9915 42.0472 13.8655 42.0331 13.8655C42.019 13.8655 42.0048 13.7536 41.9907 13.5997C41.9624 13.18 41.9342 12.9841 41.9059 12.9561C41.8918 12.9421 41.8777 12.8442 41.8777 12.7322C41.8777 12.6203 41.8635 12.5364 41.8494 12.5224C41.8353 12.5084 41.8212 12.4524 41.8212 12.3824C41.8212 12.3125 41.7929 12.2425 41.7788 12.2006C41.7505 12.1446 41.7081 11.9627 41.6799 11.7109C41.6657 11.6409 41.6516 11.5849 41.6375 11.5849C41.6234 11.5849 41.6092 11.529 41.6092 11.473C41.6092 11.4031 41.5951 11.3471 41.581 11.3331C41.5668 11.3191 41.5527 11.2771 41.5386 11.2212C41.5245 11.1652 41.5103 11.0812 41.4821 11.0253C41.4256 10.8714 41.4114 10.8434 41.4114 10.7874C41.3408 10.4376 41.3266 10.3677 41.2984 10.3677C41.2843 10.3677 41.2843 10.3397 41.2843 10.3117C41.2984 10.2837 41.2843 10.2418 41.256 10.2138C41.2277 10.1998 41.2136 10.1298 41.2136 10.0739C41.2136 10.0179 41.1995 9.97593 41.1854 9.96194C41.1712 9.96194 41.1571 9.91996 41.143 9.864C41.143 9.82202 41.1288 9.78005 41.1147 9.78005C41.1006 9.78005 41.0865 9.75206 41.0865 9.71009C41.0865 9.66811 41.0582 9.62614 41.0441 9.62614C41.0158 9.61215 41.0017 9.58417 41.0158 9.54219C41.0299 9.50022 41.0158 9.47224 40.9876 9.45825C40.9593 9.44425 40.9452 9.41627 40.9452 9.38829C40.9452 9.36031 40.931 9.31833 40.9169 9.30434C40.9028 9.29035 40.8887 9.24837 40.8887 9.22039C40.8887 9.17842 40.8745 9.13644 40.8604 9.13644C40.8463 9.12245 40.8321 9.09447 40.8321 9.06649C40.8321 9.0385 40.818 8.99653 40.7898 8.98254C40.7756 8.96854 40.7474 8.94056 40.7474 8.92657C40.7474 8.91258 40.7191 8.85661 40.6909 8.78666C40.6626 8.7167 40.6343 8.66074 40.6343 8.64674C40.6343 8.61876 40.4789 8.28297 40.4507 8.25498C40.4365 8.24099 40.4224 8.21301 40.4224 8.18503C40.4224 8.15704 40.4083 8.11507 40.3942 8.11507C40.38 8.10108 40.3659 8.0731 40.3659 8.04511C40.3659 8.01713 40.3376 7.96116 40.3235 7.94717C40.3094 7.91919 40.2952 7.89121 40.3094 7.87722C40.3235 7.86322 40.3094 7.84923 40.2953 7.86322C40.267 7.87722 40.2529 7.84923 40.267 7.80726C40.267 7.79327 40.2529 7.77928 40.2246 7.76528C40.1964 7.75129 40.1681 7.72331 40.1681 7.69533C40.1681 7.66734 40.154 7.65335 40.1398 7.65335C40.1257 7.65335 40.1116 7.63936 40.1116 7.61138C40.1116 7.55541 40.0268 7.38752 39.9844 7.35953C39.9703 7.34554 39.9703 7.33155 39.9703 7.31756C39.9844 7.30357 39.9703 7.28958 39.9562 7.28958C39.942 7.28958 39.9138 7.2476 39.8855 7.19164C39.8431 7.0797 39.7442 6.9258 39.6453 6.81387C39.6171 6.77189 39.5888 6.71593 39.5888 6.68795C39.5888 6.65996 39.5747 6.63198 39.5606 6.63198C39.5464 6.63198 39.5323 6.61799 39.5323 6.59001C39.5323 6.56202 39.5182 6.53404 39.4899 6.53404C39.4617 6.52005 39.4475 6.50606 39.4475 6.47808C39.4475 6.45009 39.4193 6.42211 39.391 6.39413C39.3628 6.36614 39.3345 6.32417 39.3345 6.28219C39.3345 6.24022 39.3204 6.21224 39.3062 6.21224C39.2921 6.21224 39.2073 6.1143 39.1226 6.00237C39.0378 5.87644 38.9248 5.73653 38.8682 5.66657C38.8117 5.59662 38.7552 5.54065 38.7552 5.52666C38.7552 5.49868 38.7128 5.44271 38.515 5.23284C38.4585 5.17687 38.402 5.09293 38.3879 5.05095C38.3455 4.981 38.1194 4.72915 37.4271 4.04357C37.1728 3.79172 36.9609 3.56786 36.9609 3.56786C36.9609 3.55387 36.8761 3.46992 36.8478 3.46992C36.8337 3.46992 36.7913 3.44194 36.7631 3.39997C36.7207 3.35799 36.6783 3.33001 36.6783 3.33001C36.6642 3.33001 36.6218 3.28804 36.5653 3.23207C36.3816 3.06417 36.1838 2.88228 36.1697 2.88228C36.1555 2.88228 36.1273 2.8543 36.0849 2.81233C36.0566 2.77035 35.9719 2.71439 35.9153 2.67241C35.8588 2.63044 35.774 2.57447 35.7458 2.5325C35.7175 2.49053 35.6751 2.46254 35.661 2.46254C35.6469 2.46254 35.5904 2.42057 35.5339 2.37859C35.4773 2.32263 35.4208 2.29464 35.4067 2.29464C35.3926 2.29464 35.3502 2.26666 35.3078 2.22469C35.2654 2.18271 35.223 2.15473 35.1948 2.15473C35.1806 2.15473 35.1524 2.14074 35.1524 2.12675C35.1524 2.11276 35.1383 2.09876 35.11 2.09876C35.0817 2.09876 35.0676 2.08477 35.0676 2.05679C35.0676 2.02881 35.0393 2.01482 35.0111 2.01482C34.9828 2.01482 34.9546 2.00082 34.9404 1.98683C34.9263 1.94486 34.5025 1.66503 34.3894 1.63705C34.3612 1.62306 34.3329 1.60907 34.3329 1.59507C34.3329 1.58108 34.3047 1.56709 34.2764 1.56709C34.2481 1.56709 34.2199 1.5531 34.2199 1.53911C34.2199 1.52512 34.2057 1.51113 34.1775 1.51113C34.1492 1.51113 34.121 1.49713 34.1068 1.46915C34.0927 1.44117 34.0079 1.3852 33.909 1.34323C33.8243 1.30125 33.683 1.2313 33.5982 1.17533C33.5134 1.13336 33.4287 1.09138 33.4004 1.09138C33.3722 1.09138 33.3439 1.07739 33.3298 1.04941C33.3156 1.02143 33.3015 1.00743 33.2733 1.00743C33.2026 1.00743 32.8776 0.867521 32.8635 0.839538C32.8635 0.825547 32.8211 0.811556 32.7787 0.811556C32.7364 0.811556 32.694 0.797564 32.694 0.783572C32.6798 0.769581 32.6375 0.75559 32.5809 0.75559C32.5386 0.75559 32.4962 0.741598 32.4962 0.727606C32.4962 0.713615 32.4679 0.699624 32.4255 0.699624C32.3831 0.699624 32.3408 0.685632 32.3125 0.657649C32.2984 0.629667 32.2419 0.615676 32.1853 0.615676C32.1429 0.615676 32.0864 0.601684 32.0864 0.587692C32.0723 0.573701 32.0158 0.55971 31.9593 0.55971C31.9028 0.55971 31.8462 0.545719 31.8321 0.531728C31.818 0.517736 31.7756 0.503744 31.7332 0.503744C31.6908 0.503744 31.6202 0.489753 31.5919 0.461771C31.5637 0.433788 31.4789 0.419796 31.4224 0.419796C31.3659 0.419796 31.2952 0.405805 31.2811 0.391813C31.267 0.377822 31.1822 0.36383 31.0974 0.349839C30.7159 0.307865 30.6453 0.293873 30.6029 0.279882C30.4758 0.223916 29.8117 0.195933 29.077 0.209925C27.8195 0.237908 24.1037 0.237907 24.0754 0.223916C23.9483 0.125976 22.8886 0.125977 21.6029 0.125977Z" fill="url(#paint0_linear_16_451)"/>
<path fill-rule="evenodd" clip-rule="evenodd" d="M18.1553 7.17837C18.1553 7.19236 18.1411 7.20636 18.1129 7.20636C18.0846 7.20636 18.0705 7.23434 18.0705 7.26232C18.0705 7.2903 18.0564 7.33228 18.0422 7.33228C18.0281 7.34627 18.014 7.38824 18.014 7.43022C18.014 7.47219 17.9998 7.50018 17.9857 7.50018C17.9716 7.50018 17.9575 7.52816 17.9575 7.57013C17.9575 7.61211 17.9433 7.65408 17.9151 7.66807C17.8868 7.68206 17.8727 7.71005 17.8727 7.73803C17.8727 7.76601 17.8586 7.80799 17.8444 7.80799C17.8303 7.82198 17.8162 7.84996 17.8162 7.87794C17.8162 7.90593 17.802 7.93391 17.7879 7.93391C17.7738 7.93391 17.7314 8.01786 17.6749 8.12979C17.6184 8.24172 17.576 8.35365 17.5619 8.38163C17.5477 8.40962 17.5336 8.45159 17.5336 8.47957C17.5336 8.50756 17.5195 8.52155 17.5053 8.52155C17.4912 8.52155 17.4771 8.54953 17.4771 8.5915C17.4771 8.63348 17.463 8.66146 17.4488 8.66146C17.4347 8.66146 17.4206 8.68944 17.4206 8.73142C17.4206 8.77339 17.4064 8.80137 17.3782 8.80137C17.3499 8.80137 17.3358 8.81537 17.3499 8.87133C17.3641 8.9273 17.3499 8.95528 17.3217 8.96927C17.2934 8.98326 17.2793 9.02524 17.2793 9.05322C17.2793 9.09519 17.2652 9.12318 17.251 9.12318C17.2369 9.12318 17.2228 9.15116 17.2228 9.17914C17.2228 9.20713 17.2086 9.23511 17.1945 9.23511C17.1804 9.23511 17.1663 9.26309 17.1663 9.29107C17.1663 9.417 17.2369 9.417 13.295 9.417C11.218 9.417 9.46607 9.417 9.42369 9.417C9.36717 9.417 9.33891 9.43099 9.33891 9.45897C9.33891 9.48696 9.32478 9.51494 9.29653 9.51494C9.26827 9.52893 9.25414 9.5709 9.25414 9.62687C9.25414 9.68283 9.24001 9.71082 9.22588 9.71082C9.21175 9.71082 9.19763 9.75279 9.19763 9.79477C9.19763 9.83674 9.1835 9.89271 9.15524 9.9067C9.12698 9.92069 9.09873 10.0046 9.07047 10.0886C9.04221 10.1725 9.01395 10.2425 8.99983 10.2425C8.9857 10.2425 8.97157 10.2845 8.97157 10.3264C8.97157 10.3684 8.95744 10.4244 8.92918 10.4524C8.90092 10.4803 8.85854 10.5783 8.83028 10.6762C8.80202 10.7742 8.75963 10.9001 8.73137 10.9561C8.70312 11.012 8.68899 11.068 8.70312 11.082C8.71725 11.096 8.70312 11.1239 8.67486 11.1519C8.6466 11.1659 8.63248 11.2219 8.63248 11.2639C8.63248 11.3058 8.61835 11.3338 8.60422 11.3338C8.59009 11.3338 8.57596 11.3758 8.57596 11.4178C8.57596 11.4597 8.56183 11.5157 8.5477 11.5297C8.53357 11.5437 8.51944 11.5997 8.51944 11.6556V11.7536H17.0956C24.7251 11.7536 25.7 11.7536 25.7 11.7116C25.7 11.6836 25.7142 11.6696 25.7424 11.6696C25.7707 11.6696 25.7848 11.6416 25.7848 11.5857C25.7848 11.5437 25.7989 11.4877 25.8272 11.4737C25.8554 11.4597 25.8837 11.3758 25.912 11.2918C25.9402 11.2079 25.9685 11.1379 25.9826 11.1239C25.9967 11.11 26.0109 11.082 26.0109 11.04C26.0109 10.998 26.025 10.9561 26.0391 10.9561C26.0532 10.9421 26.0674 10.9001 26.0674 10.8581C26.0674 10.8161 26.0815 10.7882 26.0956 10.7882C26.1098 10.7882 26.1239 10.7462 26.1239 10.7042C26.1239 10.6622 26.138 10.6203 26.1521 10.6203C26.1663 10.6203 26.1804 10.5923 26.1804 10.5503C26.1804 10.5083 26.1945 10.4664 26.2087 10.4524C26.2228 10.4384 26.2369 10.3964 26.2369 10.3404C26.2369 10.2705 26.2511 10.2565 26.2934 10.2705C26.3358 10.2845 26.3358 10.2705 26.3217 10.1865C26.3076 10.1026 26.3076 10.0746 26.35 10.0746C26.3782 10.0746 26.3923 10.0466 26.3923 10.0046C26.3923 9.96266 26.4065 9.92069 26.4206 9.9067C26.4347 9.89271 26.4489 9.85073 26.4489 9.82275C26.4489 9.78077 26.463 9.7388 26.4771 9.7388C26.4912 9.72481 26.5054 9.68283 26.5054 9.62687C26.5054 9.5709 26.5195 9.54292 26.5478 9.54292C26.5619 9.54292 26.6043 9.47296 26.6325 9.38902C26.6608 9.30507 26.7173 9.13717 26.7597 9.02524C26.8021 8.91331 26.8303 8.78738 26.8303 8.74541C26.8303 8.70344 26.8586 8.67545 26.8727 8.66146C26.901 8.64747 26.9151 8.6055 26.9151 8.54953C26.9151 8.49357 26.9292 8.46558 26.9434 8.46558C26.9575 8.46558 26.9716 8.42361 26.9716 8.38163C26.9716 8.33966 26.9857 8.29769 26.9999 8.29769C27.014 8.29769 27.0281 8.2697 27.0281 8.24172C27.0281 8.21374 27.0423 8.15777 27.0705 8.14378C27.0988 8.1158 27.1129 8.07382 27.0988 8.04584C27.0846 8.00387 27.0988 7.97588 27.127 7.96189C27.1553 7.9479 27.1694 7.90593 27.1694 7.84996C27.1694 7.80799 27.1835 7.76601 27.1977 7.76601C27.2118 7.76601 27.2259 7.73803 27.2259 7.69605C27.2259 7.65408 27.2401 7.6261 27.2542 7.6261C27.2683 7.6261 27.2825 7.58412 27.2825 7.52816C27.2825 7.4582 27.2966 7.41623 27.3248 7.40223C27.3531 7.38824 27.3672 7.34627 27.3672 7.27631L27.3531 7.16438L22.733 7.15039C19.7094 7.15039 18.1553 7.16438 18.1553 7.17837ZM15.4991 14.342C15.4708 14.356 15.4284 14.3979 15.4143 14.4399C15.4002 14.4819 15.3719 14.5239 15.3578 14.5239C15.3436 14.5239 15.3154 14.5658 15.3013 14.6218C15.2871 14.6778 15.2447 14.7337 15.2165 14.7337C15.1882 14.7477 15.1741 14.7757 15.1741 14.8037C15.1741 14.8317 15.1458 14.8736 15.1035 14.9156C15.0611 14.9436 15.0328 14.9996 15.0328 15.0276C15.0328 15.0555 15.0187 15.0835 15.0046 15.0835C14.9904 15.0835 14.9763 15.0975 14.9763 15.1255C14.9763 15.1535 14.948 15.1954 14.9198 15.2234C14.8633 15.2934 14.7361 15.4753 14.6796 15.6012C14.6513 15.6432 14.6231 15.6851 14.6089 15.6851C14.5948 15.6851 14.5807 15.7131 14.5807 15.7551C14.5807 15.7971 14.5666 15.8251 14.5524 15.8111C14.5383 15.7971 14.5242 15.8251 14.5242 15.853C14.5242 15.881 14.51 15.909 14.4959 15.909C14.4818 15.909 14.4677 15.923 14.4677 15.951C14.4677 15.979 14.4535 16.0069 14.4253 16.0069C14.397 16.0209 14.3829 16.0349 14.3829 16.0629C14.3829 16.1888 14.4818 16.1748 10.4268 16.1748C6.20233 16.1748 6.47077 16.1609 6.47077 16.3427C6.47077 16.3847 6.45665 16.4127 6.44252 16.4127C6.42839 16.4127 6.41426 16.4687 6.41426 16.5386C6.41426 16.6086 6.40013 16.6645 6.386 16.6645C6.37187 16.6645 6.35774 16.7065 6.35774 16.7625C6.35774 16.8185 6.32949 16.8744 6.31536 16.9024C6.2871 16.9304 6.27297 16.9864 6.2871 17.0143C6.30123 17.0563 6.2871 17.0983 6.25884 17.1123C6.23058 17.1263 6.21646 17.1962 6.21646 17.2382C6.21646 17.2802 6.20232 17.3501 6.1882 17.3501C6.17407 17.3641 6.15994 17.4061 6.15994 17.4481C6.15994 17.49 6.14581 17.546 6.13168 17.546C6.11755 17.56 6.10343 17.616 6.10343 17.6719C6.10343 17.7279 6.0893 17.7699 6.07517 17.7559C6.06104 17.7419 6.03278 17.7839 6.03278 17.8538C6.01865 17.9098 6.00452 18.0077 5.99039 18.0497C5.97627 18.0917 5.96214 18.1756 5.97626 18.2316L5.99039 18.3295L14.5666 18.3435C23.9057 18.3575 23.2416 18.3575 23.2416 18.2036C23.2416 18.1756 23.2558 18.1476 23.2699 18.1336C23.284 18.1197 23.2981 18.0777 23.2981 18.0497C23.2981 18.0077 23.3123 17.9657 23.3264 17.9657C23.3405 17.9518 23.3547 17.9238 23.3547 17.8958C23.3547 17.8678 23.3688 17.8398 23.3829 17.8398C23.397 17.8398 23.4112 17.8118 23.4112 17.7839C23.4112 17.7559 23.4253 17.7139 23.4536 17.6859C23.4818 17.6719 23.4959 17.616 23.4959 17.574C23.4959 17.532 23.5101 17.49 23.5242 17.49C23.5383 17.476 23.5525 17.4341 23.5525 17.3921C23.5525 17.3501 23.5666 17.3221 23.5807 17.3221C23.5948 17.3221 23.609 17.2942 23.609 17.2522C23.609 17.2102 23.6231 17.1682 23.6372 17.1542C23.6514 17.1403 23.6655 17.1123 23.6655 17.0843C23.6655 17.0563 23.6796 17.0283 23.7079 17.0143C23.7361 17.0003 23.7503 16.9584 23.7503 16.9024C23.7503 16.8464 23.7644 16.8185 23.7785 16.8185C23.7926 16.8185 23.8068 16.7905 23.8068 16.7625C23.8068 16.7345 23.8209 16.6925 23.835 16.6925C23.8492 16.6785 23.8633 16.6366 23.8633 16.5946C23.8633 16.5526 23.8774 16.5246 23.8915 16.5246C23.9057 16.5246 23.9198 16.4966 23.9198 16.4547C23.9198 16.4127 23.9339 16.3847 23.9481 16.3847C23.9622 16.3847 23.9904 16.3427 23.9904 16.3008C24.0046 16.2448 24.0187 16.2028 24.0328 16.1888C24.047 16.1748 24.0611 16.1329 24.0611 16.1049C24.0611 16.0769 24.0752 16.0349 24.0893 16.0349C24.1035 16.0349 24.1176 16.007 24.1176 15.965C24.1176 15.923 24.1317 15.895 24.1459 15.895C24.16 15.895 24.1741 15.867 24.1741 15.8251C24.1741 15.7831 24.1882 15.7411 24.2024 15.7411C24.2448 15.7131 24.3295 15.5452 24.3295 15.4613C24.3295 15.4193 24.3437 15.3913 24.3578 15.3913C24.3719 15.3913 24.3861 15.3633 24.3861 15.3214C24.3861 15.2794 24.4002 15.2514 24.4143 15.2514C24.4284 15.2514 24.4426 15.2234 24.4426 15.1815C24.4426 15.1395 24.4567 15.0975 24.485 15.0975C24.5132 15.0835 24.5273 15.0415 24.5273 14.9996C24.5273 14.9576 24.5415 14.9156 24.5556 14.9156C24.5697 14.9016 24.598 14.8317 24.6262 14.7477C24.6545 14.6638 24.6828 14.5938 24.6969 14.5938C24.711 14.5938 24.7251 14.5379 24.711 14.4819L24.6969 14.37H20.1192C17.6042 14.342 15.5273 14.342 15.4991 14.342ZM12.8711 21.1138C12.8428 21.1418 12.8146 21.1978 12.8146 21.2118C12.8146 21.2397 12.8005 21.2537 12.7863 21.2537C12.7722 21.2537 12.7439 21.2817 12.7439 21.3237C12.7298 21.3657 12.7157 21.3936 12.7016 21.3936C12.6874 21.3936 12.6592 21.4356 12.6309 21.4916C12.6027 21.5475 12.5461 21.6455 12.5038 21.7015C12.4614 21.7714 12.419 21.8414 12.4049 21.8693C12.3907 21.8973 12.3766 21.9253 12.3625 21.9253C12.3483 21.9253 12.3342 21.9533 12.3342 21.9813C12.3342 22.0093 12.306 22.0652 12.2777 22.0932C12.2494 22.1352 12.2212 22.1772 12.2212 22.2051C12.2212 22.2331 12.2071 22.2611 12.1788 22.2751C12.1647 22.2891 12.1223 22.3311 12.1082 22.373C12.0093 22.5409 11.9951 22.5689 11.9527 22.6109C11.9386 22.6389 11.9103 22.6669 11.9103 22.6809C11.9103 22.6948 11.8821 22.7368 11.8538 22.7788C11.8256 22.8208 11.7973 22.8627 11.7973 22.8907C11.7973 22.9187 11.7832 22.9467 11.7691 22.9467C11.7549 22.9467 11.7408 22.9607 11.7408 22.9887C11.7408 23.0166 11.7125 23.0586 11.6702 23.1146C11.6278 23.1566 11.5995 23.2125 11.5995 23.2405C11.5995 23.2685 11.5854 23.2825 11.5713 23.2825C11.5571 23.2825 11.543 23.3105 11.543 23.3384C11.543 23.5063 11.8114 23.4924 7.60107 23.5063L3.74392 23.5203L3.72979 23.6183C3.72979 23.6742 3.70154 23.7302 3.68741 23.7582C3.67328 23.7722 3.65915 23.8142 3.65915 23.8561C3.65915 23.8981 3.64502 23.9401 3.61676 23.9541C3.5885 23.9681 3.57438 24.024 3.57438 24.08C3.57438 24.122 3.56025 24.1779 3.54612 24.1779C3.53199 24.1919 3.51786 24.2339 3.51786 24.2899C3.51786 24.3318 3.50373 24.3738 3.4896 24.3738C3.47547 24.3738 3.46135 24.4158 3.46135 24.4718C3.46135 24.5277 3.44722 24.5697 3.43309 24.5697C3.41896 24.5697 3.40483 24.6117 3.40483 24.6676C3.40483 24.7376 3.3907 24.7656 3.36244 24.7656C3.33419 24.7656 3.32006 24.7936 3.32006 24.8635C3.32006 24.9195 3.30593 24.9615 3.2918 24.9615C3.27767 24.9615 3.26354 25.0034 3.26354 25.0454C3.26354 25.0874 3.24941 25.1433 3.23528 25.1573C3.22116 25.1713 3.20703 25.2133 3.20703 25.2553C3.20703 25.2972 3.1929 25.3532 3.17877 25.3532C3.16464 25.3672 3.15051 25.4092 3.15051 25.4651V25.5491H3.60263C3.88521 25.5491 4.05475 25.5351 4.08301 25.5211C4.11127 25.4931 4.13953 25.4931 4.18191 25.5211C4.30907 25.5911 20.3735 25.5631 20.3876 25.4931C20.4017 25.4651 20.4159 25.4372 20.43 25.4511C20.4441 25.4651 20.4583 25.4372 20.4441 25.3812C20.43 25.3112 20.4441 25.2833 20.4724 25.2833C20.5006 25.2833 20.5148 25.2553 20.5148 25.2273C20.5148 25.1993 20.543 25.1014 20.5854 25.0314C20.6278 24.9475 20.6561 24.8635 20.6561 24.8355C20.6561 24.8075 20.6702 24.7796 20.6843 24.7656C20.6984 24.7516 20.7126 24.7236 20.7126 24.6816C20.7126 24.6536 20.7267 24.5977 20.755 24.5837C20.7832 24.5557 20.7973 24.4997 20.7973 24.4718C20.7973 24.4298 20.8115 24.4018 20.8256 24.4018C20.8397 24.4018 20.8539 24.3738 20.8539 24.3458C20.8539 24.3178 20.868 24.2619 20.8821 24.2199C20.8962 24.1919 20.9245 24.136 20.9386 24.108C20.9528 24.08 20.9669 24.024 20.9669 23.9821C20.9669 23.9401 20.981 23.9261 20.9951 23.9401C21.0093 23.9541 21.0234 23.9261 21.0234 23.8701C21.0234 23.8142 21.0375 23.7722 21.0517 23.7582C21.0658 23.7442 21.0799 23.7022 21.0799 23.6602C21.0799 23.6183 21.094 23.5903 21.1082 23.5903C21.1223 23.5903 21.1364 23.5483 21.1364 23.5063C21.1364 23.4504 21.1506 23.4224 21.1647 23.4224C21.1788 23.4224 21.193 23.3944 21.193 23.3664C21.193 23.3384 21.2071 23.2965 21.2353 23.2825C21.2636 23.2685 21.2777 23.2265 21.2777 23.1845C21.2777 23.1426 21.2919 23.1006 21.306 23.1006C21.3201 23.1006 21.3342 23.0726 21.3342 23.0446C21.3342 23.0166 21.3484 22.9607 21.3766 22.9327C21.4049 22.9047 21.419 22.8627 21.419 22.8348C21.419 22.8068 21.4331 22.7648 21.4473 22.7648C21.4614 22.7508 21.4755 22.7088 21.4755 22.6809C21.4755 22.6389 21.4897 22.5969 21.5179 22.5689C21.5462 22.5549 21.5603 22.513 21.5603 22.499C21.5603 22.471 21.5886 22.373 21.6592 22.2471C21.6733 22.2191 21.7016 22.1352 21.7157 22.0652C21.744 21.9813 21.7722 21.9253 21.7864 21.9393C21.8005 21.9533 21.8146 21.9113 21.8146 21.8414C21.8146 21.7854 21.8287 21.7294 21.8429 21.7294C21.857 21.7294 21.8711 21.6875 21.8711 21.6455C21.8711 21.6035 21.8853 21.5475 21.8994 21.5336C21.9135 21.5196 21.9276 21.4916 21.9276 21.4636C21.9276 21.4356 21.9418 21.4076 21.97 21.4076C21.9983 21.4076 22.0124 21.3936 21.9983 21.3796C21.97 21.3377 22.0124 21.1978 22.0407 21.2118C22.0548 21.2257 22.0689 21.1978 22.0689 21.1698C22.0689 21.0439 22.0972 21.0439 17.4347 21.0439C12.9417 21.0578 12.9135 21.0578 12.8711 21.1138Z" fill="url(#paint1_linear_16_451)"/>
</g>
<defs>
<linearGradient id="paint0_linear_16_451" x1="21.0837" y1="0.125977" x2="21.0837" y2="32.663" gradientUnits="userSpaceOnUse">
<stop stop-color="#FF8A00"/>
<stop offset="1" stop-color="#F69728"/>
</linearGradient>
<linearGradient id="paint1_linear_16_451" x1="10.725" y1="7.15083" x2="21.45" y2="25.741" gradientUnits="userSpaceOnUse">
<stop stop-color="#676767"/>
<stop offset="1" stop-color="#3D3A3A"/>
<stop offset="1" stop-color="#3A3737"/>
</linearGradient>
<clipPath id="clip0_16_451">
<rect width="42.245" height="32.7399" fill="white"/>
</clipPath>
</defs>
</svg>
