<svg width="58" height="58" viewBox="0 0 58 58" fill="none" xmlns="http://www.w3.org/2000/svg">
<path d="M24.5382 5.41485C18.6424 5.16713 14.089 5.84424 14.089 5.84424C11.213 6.05186 5.70406 7.66089 5.70406 17.0792C5.70406 26.4125 5.64272 37.9211 5.70406 42.5099C5.70406 45.3128 7.43814 51.8527 13.4449 52.2019C20.7469 52.6265 33.8999 52.7186 39.935 52.2019C41.5487 52.1099 46.9279 50.8429 47.6074 44.9919C48.3151 38.9285 48.1736 34.7172 48.1736 33.7145" stroke="#011E41" stroke-width="3.27245" stroke-linecap="round" stroke-linejoin="round"/>
<path d="M17.4251 31.3555H26.8622M17.4251 40.7926H36.2994" stroke="#011E41" stroke-width="3.27245" stroke-linecap="round"/>
<path d="M46.4544 28.2033C48.2819 22.6022 50.3012 20.5814 55.5916 19.0661C50.3012 17.5509 48.2819 15.5301 46.4544 9.92895C44.627 15.5301 42.6077 17.5509 37.3172 19.0661C42.6077 20.5814 44.627 22.6022 46.4544 28.2033ZM34.2715 14.4975C35.1852 11.6955 36.1949 10.6858 38.8401 9.92895C36.1949 9.17209 35.1852 8.16243 34.2715 5.36035C33.3578 8.16243 32.3481 9.17209 29.7029 9.92895C32.3481 10.6858 33.3578 11.6955 34.2715 14.4975ZM36.5558 29.7262C37.0127 28.3252 37.5167 27.8211 38.8401 27.4419C37.5167 27.0627 37.0127 26.5587 36.5558 25.1576C36.0989 26.5587 35.5949 27.0627 34.2715 27.4419C35.5949 27.8211 36.0989 28.3252 36.5558 29.7262Z" stroke="#011E41" stroke-width="1.96347" stroke-linejoin="round"/>
</svg>
