<svg xmlns="http://www.w3.org/2000/svg" fill="none" viewBox="-0.25 -0.25 12 12" id="Microsoft-Sharepoint-Logo--Streamline-Logos" height="12" width="12"><desc>Microsoft Sharepoint Logo Streamline Icon: https://streamlinehq.com</desc><path stroke="#000000" d="M4.3125 4.552083333333334c-0.5591875000000001 -0.15956250000000002 -1.6770833333333335 -0.2875 -1.6770833333333335 0.4791666666666667S4.3125 5.75 4.3125 6.46875c0 0.9583333333333334 -1.2779375 0.5591875000000001 -1.9166666666666667 0.4791666666666667" stroke-width="0.5"></path><path stroke="#000000" stroke-linejoin="round" d="M8.145833333333334 9.104166666666668a2.635416666666667 2.635416666666667 0 1 0 -2.15625 -4.151020833333334" stroke-width="0.5"></path><path stroke="#000000" stroke-linejoin="round" d="M4.372875 8.385416666666668a1.9166666666666667 1.9166666666666667 0 0 0 1.856291666666667 2.3958333333333335c1.0445833333333334 0 1.9166666666666667 -0.8845416666666668 1.9166666666666667 -1.9166666666666667a1.9166666666666667 1.9166666666666667 0 0 0 -2.15625 -1.902291666666667" stroke-width="0.5"></path><path stroke="#000000" stroke-linejoin="round" d="M8.851166666666668 3.874541666666667A2.875 2.875 0 0 0 3.154354166666667 3.1145833333333335" stroke-width="0.5"></path><path stroke="#000000" d="M0.71875 7.90625v-4.3125a0.4791666666666667 0.4791666666666667 0 0 1 0.4791666666666667 -0.4791666666666667h4.3125a0.4791666666666667 0.4791666666666667 0 0 1 0.4791666666666667 0.4791666666666667v4.3125a0.4791666666666667 0.4791666666666667 0 0 1 -0.4791666666666667 0.4791666666666667h-4.3125a0.4791666666666667 0.4791666666666667 0 0 1 -0.4791666666666667 -0.4791666666666667Z" stroke-width="0.5"></path></svg>