<svg width="32" height="32" fill="none" xmlns="http://www.w3.org/2000/svg"><path d="M10.25 3h17.5c.69 0 1.25.56 1.25 1.25v23.5c0 .69-.56 1.25-1.25 1.25h-17.5C9.56 29 9 28.44 9 27.75V25c3.889 0 7-3.111 7-7s-3.111-7-7-7V4.25C9 3.56 9.56 3 10.25 3z" fill="#fff"/><path opacity=".67" d="M10.25 3h17.5c.69 0 1.25.56 1.25 1.25v23.5c0 .69-.56 1.25-1.25 1.25h-17.5C9.56 29 9 28.44 9 27.75V25H8v2.75A2.25 2.25 0 0 0 10.25 30h17.5A2.25 2.25 0 0 0 30 27.75V4.25A2.25 2.25 0 0 0 27.75 2h-17.5A2.25 2.25 0 0 0 8 4.25v6.82c.326-.046.66-.07 1-.07V4.25C9 3.56 9.56 3 10.25 3z" fill="#605E5C"/><path d="M16 18c0-3.889-3.111-7-7-7a6.97 6.97 0 0 0-7 7v7c.293 0 .566-.024.856-.078 2.1-.389 3.655-2.255 3.655-4.433V18c0-1.322 1.089-2.411 2.489-2.411s2.411 1.089 2.411 2.411A2.423 2.423 0 0 1 9 20.411H7.678c0 1.945-1.011 3.578-2.49 4.589H9c3.889 0 7-3.111 7-7z" fill="#9354FF"/><path d="M16.225 13.5h9.02a.75.75 0 1 0 0-1.5H15.038c.45.452.848.955 1.186 1.5z" fill="#C2AAFE"/><path d="M15.5 23.5h9.747a.75.75 0 0 0 0-1.5h-8.732a8.46 8.46 0 0 1-1.015 1.5z" fill="#9354FF"/><path d="M17.488 18.5h7.758a.75.75 0 0 0 0-1.5h-7.8a8.704 8.704 0 0 1 .042 1.5z" fill="#AB85FF"/></svg>